<svg width="20" height="20" viewBox="0 0 20 20" fill="none" xmlns="http://www.w3.org/2000/svg">
<path fill-rule="evenodd" clip-rule="evenodd" d="M14.375 2.08638C14.1288 2.08638 13.885 2.13488 13.6575 2.22911C13.43 2.32334 13.2233 2.46145 13.0492 2.63556C12.8751 2.80967 12.737 3.01637 12.6427 3.24385C12.5485 3.47134 12.5 3.71516 12.5 3.96138C12.5 4.20761 12.5485 4.45143 12.6427 4.67892C12.737 4.9064 12.8751 5.1131 13.0492 5.28721C13.2233 5.46132 13.43 5.59943 13.6575 5.69366C13.885 5.78789 14.1288 5.83638 14.375 5.83638C14.8723 5.83638 15.3492 5.63884 15.7008 5.28721C16.0525 4.93558 16.25 4.45867 16.25 3.96138C16.25 3.4641 16.0525 2.98719 15.7008 2.63556C15.3492 2.28393 14.8723 2.08638 14.375 2.08638ZM11.3125 3.33638C11.4559 2.62995 11.8392 1.99484 12.3973 1.53865C12.9555 1.08246 13.6542 0.833252 14.375 0.833252C15.0958 0.833252 15.7945 1.08246 16.3527 1.53865C16.9108 1.99484 17.2941 2.62995 17.4375 3.33638H20V4.58638H17.4375C17.2941 5.29282 16.9108 5.92793 16.3527 6.38412C15.7945 6.84031 15.0958 7.08952 14.375 7.08952C13.6542 7.08952 12.9555 6.84031 12.3973 6.38412C11.8392 5.92793 11.4559 5.29282 11.3125 4.58638H0V3.33638H11.3125ZM5.625 8.33638C5.12772 8.33638 4.65081 8.53393 4.29917 8.88556C3.94754 9.23719 3.75 9.7141 3.75 10.2114C3.75 10.7087 3.94754 11.1856 4.29917 11.5372C4.65081 11.8888 5.12772 12.0864 5.625 12.0864C6.12228 12.0864 6.59919 11.8888 6.95083 11.5372C7.30246 11.1856 7.5 10.7087 7.5 10.2114C7.5 9.7141 7.30246 9.23719 6.95083 8.88556C6.59919 8.53393 6.12228 8.33638 5.625 8.33638ZM2.5625 9.58638C2.70595 8.87995 3.08921 8.24484 3.64734 7.78865C4.20547 7.33246 4.90415 7.08325 5.625 7.08325C6.34585 7.08325 7.04453 7.33246 7.60266 7.78865C8.16079 8.24484 8.54405 8.87995 8.6875 9.58638H20V10.8364H8.6875C8.54405 11.5428 8.16079 12.1779 7.60266 12.6341C7.04453 13.0903 6.34585 13.3395 5.625 13.3395C4.90415 13.3395 4.20547 13.0903 3.64734 12.6341C3.08921 12.1779 2.70595 11.5428 2.5625 10.8364H0V9.58638H2.5625ZM14.375 14.5864C13.8777 14.5864 13.4008 14.7839 13.0492 15.1356C12.6975 15.4872 12.5 15.9641 12.5 16.4614C12.5 16.9587 12.6975 17.4356 13.0492 17.7872C13.4008 18.1388 13.8777 18.3364 14.375 18.3364C14.8723 18.3364 15.3492 18.1388 15.7008 17.7872C16.0525 17.4356 16.25 16.9587 16.25 16.4614C16.25 15.9641 16.0525 15.4872 15.7008 15.1356C15.3492 14.7839 14.8723 14.5864 14.375 14.5864ZM11.3125 15.8364C11.4559 15.13 11.8392 14.4948 12.3973 14.0386C12.9555 13.5825 13.6542 13.3333 14.375 13.3333C15.0958 13.3333 15.7945 13.5825 16.3527 14.0386C16.9108 14.4948 17.2941 15.13 17.4375 15.8364H20V17.0864H17.4375C17.2941 17.7928 16.9108 18.4279 16.3527 18.8841C15.7945 19.3403 15.0958 19.5895 14.375 19.5895C13.6542 19.5895 12.9555 19.3403 12.3973 18.8841C11.8392 18.4279 11.4559 17.7928 11.3125 17.0864H0V15.8364H11.3125Z" fill="#3E3728"/>
</svg>
