<svg width="60" height="53" viewBox="0 0 60 53" fill="none" xmlns="http://www.w3.org/2000/svg">
<path d="M24.3329 39.7909L24.3329 39.7914L24.4522 40.8325L24.4523 40.8332C24.4926 41.1962 24.8719 41.5228 25.3705 41.5228H34.4694C34.9654 41.5228 35.3377 41.2088 35.3879 40.8308C35.3879 40.8303 35.388 40.8299 35.388 40.8294L35.4961 39.8889L35.4962 39.888C35.7718 37.5841 36.6864 35.4155 38.0605 33.5467L38.0614 33.5455C39.3159 31.8658 40.0496 29.782 40.0496 27.527C40.0496 21.8589 35.3811 17.2751 29.6805 17.4026C24.2788 17.5303 19.8755 21.9656 19.8011 27.3779L24.3329 39.7909ZM24.3329 39.7909C24.0682 37.5304 23.1754 35.4045 21.811 33.5889M24.3329 39.7909L21.811 33.5889M21.811 33.5889C20.524 31.8549 19.7692 29.7069 19.8011 27.3779L21.811 33.5889Z" fill="#CEB785" fill-opacity="0.03" stroke="#CEB785" stroke-width="0.400001"/>
<path d="M30.3265 52.6005H29.2637C28.2985 52.6005 27.5068 51.8196 27.5068 50.8436V49.2169H32.0725V50.8436C32.0834 51.8088 31.3025 52.6005 30.3265 52.6005Z" fill="#AF9D74"/>
<path d="M32.235 51.4942H27.626C26.3138 51.4942 25.251 50.4314 25.251 49.1191V41.723H34.6101V49.1191C34.6101 50.4314 33.5473 51.4942 32.235 51.4942Z" fill="#AF9D74"/>
<path d="M34.8921 43.5122L24.9583 44.5533C24.6329 44.5858 24.3618 44.3472 24.3618 44.0219C24.3618 43.6965 24.6329 43.3929 24.9583 43.3603L34.8921 42.3192C35.2175 42.2867 35.4886 42.5253 35.4886 42.8506C35.4886 43.1868 35.2175 43.4796 34.8921 43.5122Z" fill="#CEB785"/>
<path d="M34.8917 45.6268L24.9578 46.6679C24.6324 46.7004 24.3613 46.4618 24.3613 46.1365C24.3613 45.8111 24.6324 45.5075 24.9578 45.475L34.8917 44.4338C35.217 44.4013 35.4881 44.6399 35.4881 44.9652C35.4881 45.2906 35.217 45.5942 34.8917 45.6268Z" fill="#CEB785"/>
<path d="M34.8917 47.7309L24.9578 48.772C24.6324 48.8045 24.3613 48.566 24.3613 48.2406C24.3613 47.9153 24.6324 47.6116 24.9578 47.5791L34.8917 46.538C35.217 46.5054 35.4881 46.744 35.4881 47.0694C35.4881 47.4056 35.217 47.6984 34.8917 47.7309Z" fill="#CEB785"/>
<path d="M34.8917 49.8455L24.9578 50.8866C24.6324 50.9192 24.3613 50.6806 24.3613 50.3552C24.3613 50.0299 24.6324 49.7262 24.9578 49.6937L34.8917 48.6526C35.217 48.6201 35.4881 48.8586 35.4881 49.184C35.4881 49.5202 35.217 49.813 34.8917 49.8455Z" fill="#CEB785"/>
<rect x="28.6138" y="35.6516" width="2.94761" height="5.89521" fill="#CEB785"/>
<ellipse cx="30.0843" cy="30.9064" rx="4.76541" ry="4.99233" fill="#BAA476"/>
<ellipse cx="29.2259" cy="32.4156" rx="0.221543" ry="0.23448" fill="#080501"/>
<ellipse cx="28.3895" cy="31.5298" rx="0.221543" ry="0.23448" fill="#080501"/>
<ellipse cx="28.2909" cy="30.9046" rx="0.221543" ry="0.23448" fill="#080501"/>
<ellipse cx="28.3895" cy="30.3314" rx="0.221543" ry="0.23448" fill="#080501"/>
<ellipse cx="28.7342" cy="29.7582" rx="0.221543" ry="0.23448" fill="#080501"/>
<ellipse cx="29.2259" cy="29.3936" rx="0.221543" ry="0.23448" fill="#080501"/>
<ellipse cx="29.8172" cy="29.2372" rx="0.221543" ry="0.23448" fill="#080501"/>
<ellipse cx="30.4574" cy="29.2372" rx="0.221543" ry="0.23448" fill="#080501"/>
<ellipse cx="31.0975" cy="29.3936" rx="0.221543" ry="0.23448" fill="#080501"/>
<ellipse cx="31.5399" cy="29.8104" rx="0.221543" ry="0.23448" fill="#080501"/>
<ellipse cx="31.9344" cy="30.3836" rx="0.221543" ry="0.23448" fill="#080501"/>
<ellipse cx="31.9833" cy="30.9568" rx="0.221543" ry="0.23448" fill="#080501"/>
<ellipse cx="31.8851" cy="31.5298" rx="0.221543" ry="0.23448" fill="#080501"/>
<ellipse cx="31.5892" cy="32.0511" rx="0.221543" ry="0.23448" fill="#080501"/>
<ellipse cx="31.0477" cy="32.4156" rx="0.221543" ry="0.23448" fill="#080501"/>
<ellipse cx="28.7342" cy="32.0511" rx="0.221543" ry="0.23448" fill="#080501"/>
<ellipse cx="29.2753" cy="33.041" rx="0.172311" ry="0.182373" fill="#080501"/>
<ellipse cx="29.6699" cy="33.6142" rx="0.172311" ry="0.182373" fill="#080501"/>
<ellipse cx="30.6542" cy="33.6142" rx="0.172311" ry="0.182373" fill="#080501"/>
<ellipse cx="30.9492" cy="33.041" rx="0.172311" ry="0.182373" fill="#080501"/>
<ellipse cx="31.6879" cy="32.6242" rx="0.172311" ry="0.182373" fill="#080501"/>
<ellipse cx="31.5893" cy="33.2494" rx="0.172311" ry="0.182373" fill="#080501"/>
<ellipse cx="32.1801" cy="32.051" rx="0.172311" ry="0.182373" fill="#080501"/>
<ellipse cx="32.4755" cy="31.3213" rx="0.172311" ry="0.182373" fill="#080501"/>
<ellipse cx="32.4755" cy="30.4878" rx="0.172311" ry="0.182373" fill="#080501"/>
<ellipse cx="32.2788" cy="29.8103" rx="0.172311" ry="0.182373" fill="#080501"/>
<ellipse cx="31.6879" cy="29.1851" rx="0.172311" ry="0.182373" fill="#080501"/>
<ellipse cx="30.9492" cy="28.7684" rx="0.172311" ry="0.182373" fill="#080501"/>
<ellipse cx="30.1123" cy="28.6119" rx="0.172311" ry="0.182373" fill="#080501"/>
<ellipse cx="29.2753" cy="28.7684" rx="0.172311" ry="0.182373" fill="#080501"/>
<ellipse cx="28.5864" cy="29.1329" rx="0.172311" ry="0.182373" fill="#080501"/>
<ellipse cx="28.0444" cy="29.7584" rx="0.172311" ry="0.182373" fill="#080501"/>
<ellipse cx="27.7495" cy="30.4878" rx="0.172311" ry="0.182373" fill="#080501"/>
<ellipse cx="27.7001" cy="31.2171" rx="0.172311" ry="0.182373" fill="#080501"/>
<ellipse cx="27.9956" cy="31.9988" rx="0.172311" ry="0.182373" fill="#080501"/>
<ellipse cx="28.5371" cy="32.6762" rx="0.172311" ry="0.182373" fill="#080501"/>
<ellipse cx="28.6845" cy="33.2494" rx="0.172311" ry="0.182373" fill="#080501"/>
<ellipse cx="30.1374" cy="34.0571" rx="0.147695" ry="0.15632" fill="#080501"/>
<ellipse cx="31.2698" cy="33.7964" rx="0.147695" ry="0.15632" fill="#080501"/>
<ellipse cx="32.2546" cy="33.2754" rx="0.147695" ry="0.15632" fill="#080501"/>
<ellipse cx="32.3528" cy="32.6502" rx="0.147695" ry="0.15632" fill="#080501"/>
<ellipse cx="32.9929" cy="32.4938" rx="0.147695" ry="0.15632" fill="#080501"/>
<ellipse cx="32.845" cy="31.8164" rx="0.147695" ry="0.15632" fill="#080501"/>
<ellipse cx="33.3865" cy="31.3996" rx="0.147695" ry="0.15632" fill="#080501"/>
<ellipse cx="32.9929" cy="30.9306" rx="0.147695" ry="0.15632" fill="#080501"/>
<ellipse cx="33.3865" cy="30.3574" rx="0.147695" ry="0.15632" fill="#080501"/>
<ellipse cx="32.845" cy="29.9928" rx="0.147695" ry="0.15632" fill="#080501"/>
<ellipse cx="33.0422" cy="29.3673" rx="0.147695" ry="0.15632" fill="#080501"/>
<ellipse cx="32.3528" cy="29.1589" rx="0.147695" ry="0.15632" fill="#080501"/>
<ellipse cx="32.3039" cy="28.5338" rx="0.147695" ry="0.15632" fill="#080501"/>
<ellipse cx="31.5652" cy="28.5338" rx="0.147695" ry="0.15632" fill="#080501"/>
<ellipse cx="31.2698" cy="27.9086" rx="0.147695" ry="0.15632" fill="#080501"/>
<ellipse cx="30.6301" cy="28.2212" rx="0.147695" ry="0.15632" fill="#080501"/>
<ellipse cx="30.0881" cy="27.7521" rx="0.147695" ry="0.15632" fill="#080501"/>
<ellipse cx="29.5959" cy="28.2212" rx="0.147695" ry="0.15632" fill="#080501"/>
<ellipse cx="28.9558" cy="27.9605" rx="0.147695" ry="0.15632" fill="#080501"/>
<ellipse cx="28.7097" cy="28.5857" rx="0.147695" ry="0.15632" fill="#080501"/>
<ellipse cx="28.0203" cy="28.4815" rx="0.147695" ry="0.15632" fill="#080501"/>
<ellipse cx="27.9221" cy="29.107" rx="0.147695" ry="0.15632" fill="#080501"/>
<ellipse cx="27.282" cy="29.3154" rx="0.147695" ry="0.15632" fill="#080501"/>
<ellipse cx="27.3801" cy="29.9406" rx="0.147695" ry="0.15632" fill="#080501"/>
<ellipse cx="26.8391" cy="30.3054" rx="0.147695" ry="0.15632" fill="#080501"/>
<ellipse cx="27.2327" cy="30.8264" rx="0.147695" ry="0.15632" fill="#080501"/>
<ellipse cx="26.8391" cy="31.3996" rx="0.147695" ry="0.15632" fill="#080501"/>
<ellipse cx="27.3313" cy="31.8164" rx="0.147695" ry="0.15632" fill="#080501"/>
<ellipse cx="27.1833" cy="32.4419" rx="0.147695" ry="0.15632" fill="#080501"/>
<ellipse cx="27.9221" cy="32.6502" rx="0.147695" ry="0.15632" fill="#080501"/>
<ellipse cx="27.9709" cy="33.3274" rx="0.147695" ry="0.15632" fill="#080501"/>
<ellipse cx="29.0046" cy="33.8487" rx="0.147695" ry="0.15632" fill="#080501"/>
<ellipse cx="29.522" cy="34.3435" rx="0.123079" ry="0.130266" fill="#080501"/>
<ellipse cx="30.8023" cy="34.3435" rx="0.123079" ry="0.130266" fill="#080501"/>
<ellipse cx="32.0327" cy="33.9267" rx="0.123079" ry="0.130266" fill="#080501"/>
<ellipse cx="33.0176" cy="33.1451" rx="0.123079" ry="0.130266" fill="#080501"/>
<ellipse cx="33.6573" cy="32.1028" rx="0.123079" ry="0.130266" fill="#080501"/>
<ellipse cx="33.7564" cy="30.9044" rx="0.123079" ry="0.130266" fill="#080501"/>
<ellipse cx="33.6573" cy="29.7582" rx="0.123079" ry="0.130266" fill="#080501"/>
<ellipse cx="33.0176" cy="28.6637" rx="0.123079" ry="0.130266" fill="#080501"/>
<ellipse cx="31.9834" cy="27.8824" rx="0.123079" ry="0.130266" fill="#080501"/>
<ellipse cx="30.8023" cy="27.4653" rx="0.123079" ry="0.130266" fill="#080501"/>
<ellipse cx="29.522" cy="27.4653" rx="0.123079" ry="0.130266" fill="#080501"/>
<ellipse cx="28.2915" cy="27.9344" rx="0.123079" ry="0.130266" fill="#080501"/>
<ellipse cx="27.3067" cy="28.6637" rx="0.123079" ry="0.130266" fill="#080501"/>
<ellipse cx="26.667" cy="29.654" rx="0.123079" ry="0.130266" fill="#080501"/>
<ellipse cx="26.4204" cy="30.8524" rx="0.123079" ry="0.130266" fill="#080501"/>
<ellipse cx="26.5684" cy="32.1028" rx="0.123079" ry="0.130266" fill="#080501"/>
<ellipse cx="27.208" cy="33.1451" rx="0.123079" ry="0.130266" fill="#080501"/>
<ellipse cx="28.2915" cy="33.9267" rx="0.123079" ry="0.130266" fill="#080501"/>
<ellipse cx="42.663" cy="41.8548" rx="1.36364" ry="1.44327" fill="#CEB785"/>
<ellipse cx="41.8841" cy="46.8032" rx="1.36364" ry="1.44327" fill="#CEB785"/>
<ellipse cx="19.6918" cy="46.8261" rx="1.36364" ry="1.44327" fill="#CEB785"/>
<ellipse cx="46.5594" cy="37.3187" rx="1.36364" ry="1.44327" fill="#CEB785"/>
<ellipse cx="48.8968" cy="31.5456" rx="1.36364" ry="1.44327" fill="#CEB785"/>
<ellipse cx="48.8968" cy="24.948" rx="1.36364" ry="1.44327" fill="#CEB785"/>
<ellipse cx="47.3382" cy="19.5869" rx="1.36364" ry="1.44327" fill="#CEB785"/>
<ellipse cx="42.663" cy="14.6388" rx="1.36364" ry="1.44327" fill="#CEB785"/>
<ellipse cx="36.8192" cy="11.3399" rx="1.36364" ry="1.44327" fill="#CEB785"/>
<ellipse cx="30.1962" cy="10.1028" rx="1.36364" ry="1.44327" fill="#CEB785"/>
<ellipse cx="23.5716" cy="11.3399" rx="1.36364" ry="1.44327" fill="#CEB785"/>
<ellipse cx="18.1175" cy="14.2264" rx="1.36364" ry="1.44327" fill="#CEB785"/>
<ellipse cx="13.8319" cy="19.1748" rx="1.36364" ry="1.44327" fill="#CEB785"/>
<ellipse cx="11.4945" cy="24.948" rx="1.36364" ry="1.44327" fill="#CEB785"/>
<ellipse cx="11.1044" cy="30.7209" rx="1.36364" ry="1.44327" fill="#CEB785"/>
<ellipse cx="13.4423" cy="36.9064" rx="1.36364" ry="1.44327" fill="#CEB785"/>
<ellipse cx="17.7279" cy="42.2671" rx="1.36364" ry="1.44327" fill="#CEB785"/>
<ellipse cx="39.351" cy="51.1331" rx="1.16884" ry="1.23709" fill="#CEB785"/>
<ellipse cx="21.2421" cy="50.9836" rx="1.16884" ry="1.23709" fill="#CEB785"/>
<ellipse cx="47.1434" cy="47.0094" rx="1.16884" ry="1.23709" fill="#CEB785"/>
<ellipse cx="47.9227" cy="42.0613" rx="1.16884" ry="1.23709" fill="#CEB785"/>
<ellipse cx="52.9877" cy="40.8242" rx="1.16884" ry="1.23709" fill="#CEB785"/>
<ellipse cx="51.8187" cy="35.4634" rx="1.16884" ry="1.23709" fill="#CEB785"/>
<ellipse cx="56.1044" cy="32.1645" rx="1.16884" ry="1.23709" fill="#CEB785"/>
<ellipse cx="52.9877" cy="28.4532" rx="1.16884" ry="1.23709" fill="#CEB785"/>
<ellipse cx="56.1044" cy="23.9171" rx="1.16884" ry="1.23709" fill="#CEB785"/>
<ellipse cx="51.8187" cy="21.0306" rx="1.16884" ry="1.23709" fill="#CEB785"/>
<ellipse cx="53.3768" cy="16.0822" rx="1.16884" ry="1.23709" fill="#CEB785"/>
<ellipse cx="47.9227" cy="14.433" rx="1.16884" ry="1.23709" fill="#CEB785"/>
<ellipse cx="47.5326" cy="9.48456" rx="1.16884" ry="1.23709" fill="#CEB785"/>
<ellipse cx="41.6893" cy="9.48456" rx="1.16884" ry="1.23709" fill="#CEB785"/>
<ellipse cx="39.351" cy="4.53616" rx="1.16884" ry="1.23709" fill="#CEB785"/>
<ellipse cx="34.286" cy="7.01036" rx="1.16884" ry="1.23709" fill="#CEB785"/>
<ellipse cx="30.0004" cy="3.29905" rx="1.16884" ry="1.23709" fill="#CEB785"/>
<ellipse cx="26.1039" cy="7.01036" rx="1.16884" ry="1.23709" fill="#CEB785"/>
<ellipse cx="21.0394" cy="4.94852" rx="1.16884" ry="1.23709" fill="#CEB785"/>
<ellipse cx="19.0907" cy="9.89693" rx="1.16884" ry="1.23709" fill="#CEB785"/>
<ellipse cx="13.6361" cy="9.07219" rx="1.16884" ry="1.23709" fill="#CEB785"/>
<ellipse cx="12.8573" cy="14.0206" rx="1.16884" ry="1.23709" fill="#CEB785"/>
<ellipse cx="7.79237" cy="15.6698" rx="1.16884" ry="1.23709" fill="#CEB785"/>
<ellipse cx="8.57167" cy="20.6182" rx="1.16884" ry="1.23709" fill="#CEB785"/>
<ellipse cx="4.28602" cy="23.5048" rx="1.16884" ry="1.23709" fill="#CEB785"/>
<ellipse cx="7.40321" cy="27.6284" rx="1.16884" ry="1.23709" fill="#CEB785"/>
<ellipse cx="4.28602" cy="32.1645" rx="1.16884" ry="1.23709" fill="#CEB785"/>
<ellipse cx="8.18202" cy="35.4634" rx="1.16884" ry="1.23709" fill="#CEB785"/>
<ellipse cx="7.01356" cy="40.4118" rx="1.16884" ry="1.23709" fill="#CEB785"/>
<ellipse cx="12.8573" cy="42.0613" rx="1.16884" ry="1.23709" fill="#CEB785"/>
<ellipse cx="13.247" cy="47.4221" rx="1.16884" ry="1.23709" fill="#CEB785"/>
<ellipse cx="53.1815" cy="45.9784" rx="0.974029" ry="1.03091" fill="#CEB785"/>
<ellipse cx="58.2465" cy="37.7311" rx="0.974029" ry="1.03091" fill="#CEB785"/>
<ellipse cx="59.0258" cy="28.2469" rx="0.974029" ry="1.03091" fill="#CEB785"/>
<ellipse cx="58.2465" cy="19.1748" rx="0.974029" ry="1.03091" fill="#CEB785"/>
<ellipse cx="53.1815" cy="10.5151" rx="0.974029" ry="1.03091" fill="#CEB785"/>
<ellipse cx="44.9999" cy="4.32988" rx="0.974029" ry="1.03091" fill="#CEB785"/>
<ellipse cx="35.6488" cy="1.03095" rx="0.974029" ry="1.03091" fill="#CEB785"/>
<ellipse cx="25.5194" cy="1.03095" rx="0.974029" ry="1.03091" fill="#CEB785"/>
<ellipse cx="15.7787" cy="4.74198" rx="0.974029" ry="1.03091" fill="#CEB785"/>
<ellipse cx="7.98721" cy="10.5151" rx="0.974029" ry="1.03091" fill="#CEB785"/>
<ellipse cx="2.92178" cy="18.3501" rx="0.974029" ry="1.03091" fill="#CEB785"/>
<ellipse cx="0.974029" cy="27.8345" rx="0.974029" ry="1.03091" fill="#CEB785"/>
<ellipse cx="2.14297" cy="37.7311" rx="0.974029" ry="1.03091" fill="#CEB785"/>
<ellipse cx="7.20743" cy="45.9784" rx="0.974029" ry="1.03091" fill="#CEB785"/>
</svg>
