<svg width="32" height="28" viewBox="0 0 32 28" fill="none" xmlns="http://www.w3.org/2000/svg">
<path d="M15.8243 27.9999H16.3911C16.9059 27.9999 17.3281 27.5843 17.3281 27.0647V26.1988H14.8931V27.0647C14.8873 27.5785 15.3038 27.9999 15.8243 27.9999Z" fill="#F4F2EC"/>
<path d="M14.8064 27.4111H17.2646C17.9644 27.4111 18.5312 26.8454 18.5312 26.1468V22.2097H13.5398V26.1468C13.5398 26.8454 14.1066 27.4111 14.8064 27.4111Z" fill="#F4F2EC"/>
<path d="M13.3917 23.1623L18.6897 23.7165C18.8632 23.7338 19.0078 23.6068 19.0078 23.4336C19.0078 23.2604 18.8632 23.0988 18.6897 23.0815L13.3917 22.5273C13.2181 22.51 13.0735 22.637 13.0735 22.8102C13.0735 22.9891 13.2181 23.145 13.3917 23.1623Z" fill="#F4F2EC"/>
<path d="M13.3917 24.288L18.6897 24.8422C18.8632 24.8596 19.0078 24.7326 19.0078 24.5594C19.0078 24.3862 18.8632 24.2245 18.6897 24.2072L13.3917 23.653C13.2181 23.6357 13.0735 23.7627 13.0735 23.9359C13.0735 24.1091 13.2181 24.2707 13.3917 24.288Z" fill="#F4F2EC"/>
<path d="M13.3917 25.4079L18.6897 25.9621C18.8632 25.9794 19.0078 25.8524 19.0078 25.6792C19.0078 25.5061 18.8632 25.3444 18.6897 25.3271L13.3917 24.7729C13.2181 24.7556 13.0735 24.8826 13.0735 25.0558C13.0735 25.2347 13.2181 25.3906 13.3917 25.4079Z" fill="#F4F2EC"/>
<path d="M13.3917 26.5337L18.6897 27.0879C18.8632 27.1052 19.0078 26.9782 19.0078 26.805C19.0078 26.6318 18.8632 26.4702 18.6897 26.4528L13.3917 25.8986C13.2181 25.8813 13.0735 26.0083 13.0735 26.1815C13.0735 26.3605 13.2181 26.5163 13.3917 26.5337Z" fill="#F4F2EC"/>
<rect x="-0.0205199" y="0.0205199" width="1.53101" height="3.09708" transform="matrix(-1 0 0 1 16.6972 18.9775)" fill="#F4F2EC" stroke="#F4F2EC" stroke-width="0.0410398"/>
<path d="M13.441 16.4519C13.441 17.9054 14.5675 19.0814 15.9546 19.0814C17.3416 19.0814 18.4681 17.9054 18.4681 16.4519C18.4681 14.9985 17.3416 13.8224 15.9546 13.8224C14.5675 13.8224 13.441 14.9985 13.441 16.4519Z" fill="#F4F2EC" stroke="#F4F2EC" stroke-width="0.0559634"/>
<path d="M16.301 17.2557C16.301 17.3217 16.3515 17.3747 16.4131 17.3747C16.4747 17.3747 16.5252 17.3217 16.5252 17.2557C16.5252 17.1896 16.4747 17.1367 16.4131 17.1367C16.3515 17.1367 16.301 17.1896 16.301 17.2557Z" fill="#F4F2EC" stroke="#F4F2EC" stroke-width="0.0121414"/>
<path d="M16.7463 16.7837C16.7463 16.8498 16.7968 16.9027 16.8584 16.9027C16.92 16.9027 16.9705 16.8498 16.9705 16.7837C16.9705 16.7177 16.92 16.6648 16.8584 16.6648C16.7968 16.6648 16.7463 16.7177 16.7463 16.7837Z" fill="#F4F2EC" stroke="#F4F2EC" stroke-width="0.0121414"/>
<path d="M16.7971 16.4509C16.7971 16.517 16.8476 16.5699 16.9092 16.5699C16.9708 16.5699 17.0213 16.517 17.0213 16.4509C17.0213 16.3849 16.9708 16.332 16.9092 16.332C16.8476 16.332 16.7971 16.3849 16.7971 16.4509Z" fill="#F4F2EC" stroke="#F4F2EC" stroke-width="0.0121414"/>
<path d="M16.7463 16.1458C16.7463 16.2118 16.7968 16.2648 16.8584 16.2648C16.92 16.2648 16.9705 16.2118 16.9705 16.1458C16.9705 16.0798 16.92 16.0268 16.8584 16.0268C16.7968 16.0268 16.7463 16.0798 16.7463 16.1458Z" fill="#F4F2EC" stroke="#F4F2EC" stroke-width="0.0121414"/>
<path d="M16.5588 15.8409C16.5588 15.9069 16.6093 15.9599 16.6709 15.9599C16.7325 15.9599 16.783 15.9069 16.783 15.8409C16.783 15.7748 16.7325 15.7219 16.6709 15.7219C16.6093 15.7219 16.5588 15.7748 16.5588 15.8409Z" fill="#F4F2EC" stroke="#F4F2EC" stroke-width="0.0121414"/>
<path d="M16.301 15.6468C16.301 15.7128 16.3515 15.7658 16.4131 15.7658C16.4747 15.7658 16.5252 15.7128 16.5252 15.6468C16.5252 15.5807 16.4747 15.5278 16.4131 15.5278C16.3515 15.5278 16.301 15.5807 16.301 15.6468Z" fill="#F4F2EC" stroke="#F4F2EC" stroke-width="0.0121414"/>
<path d="M15.9807 15.5635C15.9807 15.6296 16.0312 15.6825 16.0928 15.6825C16.1544 15.6825 16.2049 15.6296 16.2049 15.5635C16.2049 15.4975 16.1544 15.4445 16.0928 15.4445C16.0312 15.4445 15.9807 15.4975 15.9807 15.5635Z" fill="#F4F2EC" stroke="#F4F2EC" stroke-width="0.0121414"/>
<path d="M15.6409 15.5635C15.6409 15.6295 15.6914 15.6825 15.7529 15.6825C15.8145 15.6825 15.865 15.6295 15.865 15.5635C15.865 15.4975 15.8145 15.4445 15.7529 15.4445C15.6914 15.4445 15.6409 15.4975 15.6409 15.5635Z" fill="#F4F2EC" stroke="#F4F2EC" stroke-width="0.0121414"/>
<path d="M15.301 15.6468C15.301 15.7128 15.3515 15.7658 15.4131 15.7658C15.4747 15.7658 15.5252 15.7128 15.5252 15.6468C15.5252 15.5807 15.4747 15.5278 15.4131 15.5278C15.3515 15.5278 15.301 15.5807 15.301 15.6468Z" fill="#F4F2EC" stroke="#F4F2EC" stroke-width="0.0121414"/>
<path d="M15.0666 15.8687C15.0666 15.9348 15.1171 15.9877 15.1787 15.9877C15.2403 15.9877 15.2908 15.9348 15.2908 15.8687C15.2908 15.8027 15.2403 15.7497 15.1787 15.7497C15.1171 15.7497 15.0666 15.8027 15.0666 15.8687Z" fill="#F4F2EC" stroke="#F4F2EC" stroke-width="0.0121414"/>
<path d="M14.8557 16.1739C14.8557 16.2399 14.9062 16.2929 14.9678 16.2929C15.0294 16.2929 15.0799 16.2399 15.0799 16.1739C15.0799 16.1078 15.0294 16.0549 14.9678 16.0549C14.9062 16.0549 14.8557 16.1078 14.8557 16.1739Z" fill="#F4F2EC" stroke="#F4F2EC" stroke-width="0.0121414"/>
<path d="M14.8284 16.4788C14.8284 16.5448 14.8789 16.5978 14.9404 16.5978C15.002 16.5978 15.0525 16.5448 15.0525 16.4788C15.0525 16.4127 15.002 16.3598 14.9404 16.3598C14.8789 16.3598 14.8284 16.4127 14.8284 16.4788Z" fill="#F4F2EC" stroke="#F4F2EC" stroke-width="0.0121414"/>
<path d="M14.8791 16.7837C14.8791 16.8498 14.9296 16.9027 14.9912 16.9027C15.0528 16.9027 15.1033 16.8498 15.1033 16.7837C15.1033 16.7177 15.0528 16.6648 14.9912 16.6648C14.9296 16.6648 14.8791 16.7177 14.8791 16.7837Z" fill="#F4F2EC" stroke="#F4F2EC" stroke-width="0.0121414"/>
<path d="M15.0354 17.0613C15.0354 17.1274 15.0859 17.1803 15.1475 17.1803C15.2091 17.1803 15.2596 17.1274 15.2596 17.0613C15.2596 16.9953 15.2091 16.9423 15.1475 16.9423C15.0859 16.9423 15.0354 16.9953 15.0354 17.0613Z" fill="#F4F2EC" stroke="#F4F2EC" stroke-width="0.0121414"/>
<path d="M15.3284 17.2556C15.3284 17.3216 15.3789 17.3746 15.4404 17.3746C15.502 17.3746 15.5525 17.3216 15.5525 17.2556C15.5525 17.1895 15.502 17.1366 15.4404 17.1366C15.3789 17.1366 15.3284 17.1895 15.3284 17.2556Z" fill="#F4F2EC" stroke="#F4F2EC" stroke-width="0.0121414"/>
<path d="M16.5588 17.0613C16.5588 17.1274 16.6093 17.1803 16.6709 17.1803C16.7325 17.1803 16.783 17.1274 16.783 17.0613C16.783 16.9953 16.7325 16.9423 16.6709 16.9423C16.6093 16.9423 16.5588 16.9953 16.5588 17.0613Z" fill="#F4F2EC" stroke="#F4F2EC" stroke-width="0.0121414"/>
<path d="M16.2988 17.5884C16.2988 17.6391 16.3376 17.6796 16.3847 17.6796C16.4317 17.6796 16.4705 17.6391 16.4705 17.5884C16.4705 17.5377 16.4317 17.4972 16.3847 17.4972C16.3376 17.4972 16.2988 17.5377 16.2988 17.5884Z" fill="#F4F2EC" stroke="#F4F2EC" stroke-width="0.0121414"/>
<path d="M16.0879 17.8936C16.0879 17.9443 16.1266 17.9848 16.1737 17.9848C16.2208 17.9848 16.2596 17.9443 16.2596 17.8936C16.2596 17.8429 16.2208 17.8024 16.1737 17.8024C16.1266 17.8024 16.0879 17.8429 16.0879 17.8936Z" fill="#F4F2EC" stroke="#F4F2EC" stroke-width="0.0121414"/>
<path d="M15.5645 17.8936C15.5645 17.9443 15.6032 17.9848 15.6503 17.9848C15.6974 17.9848 15.7361 17.9443 15.7361 17.8936C15.7361 17.8429 15.6974 17.8024 15.6503 17.8024C15.6032 17.8024 15.5645 17.8429 15.5645 17.8936Z" fill="#F4F2EC" stroke="#F4F2EC" stroke-width="0.0121414"/>
<path d="M15.4082 17.5884C15.4082 17.6391 15.447 17.6796 15.494 17.6796C15.5411 17.6796 15.5799 17.6391 15.5799 17.5884C15.5799 17.5377 15.5411 17.4972 15.494 17.4972C15.447 17.4972 15.4082 17.5377 15.4082 17.5884Z" fill="#F4F2EC" stroke="#F4F2EC" stroke-width="0.0121414"/>
<path d="M15.0098 17.3665C15.0098 17.4172 15.0485 17.4577 15.0956 17.4577C15.1427 17.4577 15.1814 17.4172 15.1814 17.3665C15.1814 17.3158 15.1427 17.2753 15.0956 17.2753C15.0485 17.2753 15.0098 17.3158 15.0098 17.3665Z" fill="#F4F2EC" stroke="#F4F2EC" stroke-width="0.0121414"/>
<path d="M15.0645 17.6992C15.0645 17.7499 15.1032 17.7904 15.1503 17.7904C15.1974 17.7904 15.2361 17.7499 15.2361 17.6992C15.2361 17.6485 15.1974 17.608 15.1503 17.608C15.1032 17.608 15.0645 17.6485 15.0645 17.6992Z" fill="#F4F2EC" stroke="#F4F2EC" stroke-width="0.0121414"/>
<path d="M14.752 17.0613C14.752 17.112 14.7907 17.1525 14.8378 17.1525C14.8849 17.1525 14.9236 17.112 14.9236 17.0613C14.9236 17.0106 14.8849 16.9701 14.8378 16.9701C14.7907 16.9701 14.752 17.0106 14.752 17.0613Z" fill="#F4F2EC" stroke="#F4F2EC" stroke-width="0.0121414"/>
<path d="M14.5879 16.6731C14.5879 16.7238 14.6266 16.7643 14.6737 16.7643C14.7208 16.7643 14.7596 16.7238 14.7596 16.6731C14.7596 16.6224 14.7208 16.5819 14.6737 16.5819C14.6266 16.5819 14.5879 16.6224 14.5879 16.6731Z" fill="#F4F2EC" stroke="#F4F2EC" stroke-width="0.0121414"/>
<path d="M14.5879 16.2293C14.5879 16.2799 14.6266 16.3204 14.6737 16.3204C14.7208 16.3204 14.7596 16.2799 14.7596 16.2293C14.7596 16.1786 14.7208 16.1381 14.6737 16.1381C14.6266 16.1381 14.5879 16.1786 14.5879 16.2293Z" fill="#F4F2EC" stroke="#F4F2EC" stroke-width="0.0121414"/>
<path d="M14.6973 15.8687C14.6973 15.9194 14.736 15.9599 14.7831 15.9599C14.8302 15.9599 14.8689 15.9194 14.8689 15.8687C14.8689 15.818 14.8302 15.7775 14.7831 15.7775C14.736 15.7775 14.6973 15.818 14.6973 15.8687Z" fill="#F4F2EC" stroke="#F4F2EC" stroke-width="0.0121414"/>
<path d="M15.0098 15.5359C15.0098 15.5866 15.0485 15.6271 15.0956 15.6271C15.1427 15.6271 15.1814 15.5866 15.1814 15.5359C15.1814 15.4852 15.1427 15.4447 15.0956 15.4447C15.0485 15.4447 15.0098 15.4852 15.0098 15.5359Z" fill="#F4F2EC" stroke="#F4F2EC" stroke-width="0.0121414"/>
<path d="M15.4082 15.314C15.4082 15.3647 15.447 15.4052 15.494 15.4052C15.5411 15.4052 15.5799 15.3647 15.5799 15.314C15.5799 15.2633 15.5411 15.2228 15.494 15.2228C15.447 15.2228 15.4082 15.2633 15.4082 15.314Z" fill="#F4F2EC" stroke="#F4F2EC" stroke-width="0.0121414"/>
<path d="M15.8535 15.2307C15.8535 15.2814 15.8923 15.3219 15.9394 15.3219C15.9864 15.3219 16.0252 15.2814 16.0252 15.2307C16.0252 15.18 15.9864 15.1395 15.9394 15.1395C15.8923 15.1395 15.8535 15.18 15.8535 15.2307Z" fill="#F4F2EC" stroke="#F4F2EC" stroke-width="0.0121414"/>
<path d="M16.2988 15.3137C16.2988 15.3644 16.3376 15.4049 16.3847 15.4049C16.4317 15.4049 16.4705 15.3644 16.4705 15.3137C16.4705 15.263 16.4317 15.2225 16.3847 15.2225C16.3376 15.2225 16.2988 15.263 16.2988 15.3137Z" fill="#F4F2EC" stroke="#F4F2EC" stroke-width="0.0121414"/>
<path d="M16.666 15.5081C16.666 15.5588 16.7048 15.5993 16.7519 15.5993C16.7989 15.5993 16.8377 15.5588 16.8377 15.5081C16.8377 15.4574 16.7989 15.4169 16.7519 15.4169C16.7048 15.4169 16.666 15.4574 16.666 15.5081Z" fill="#F4F2EC" stroke="#F4F2EC" stroke-width="0.0121414"/>
<path d="M16.9551 15.8411C16.9551 15.8918 16.9938 15.9323 17.0409 15.9323C17.088 15.9323 17.1267 15.8918 17.1267 15.8411C17.1267 15.7904 17.088 15.7499 17.0409 15.7499C16.9938 15.7499 16.9551 15.7904 16.9551 15.8411Z" fill="#F4F2EC" stroke="#F4F2EC" stroke-width="0.0121414"/>
<path d="M17.1113 16.2293C17.1113 16.2799 17.1501 16.3204 17.1972 16.3204C17.2442 16.3204 17.283 16.2799 17.283 16.2293C17.283 16.1786 17.2442 16.1381 17.1972 16.1381C17.1501 16.1381 17.1113 16.1786 17.1113 16.2293Z" fill="#F4F2EC" stroke="#F4F2EC" stroke-width="0.0121414"/>
<path d="M17.1387 16.6177C17.1387 16.6684 17.1774 16.7089 17.2245 16.7089C17.2716 16.7089 17.3103 16.6684 17.3103 16.6177C17.3103 16.567 17.2716 16.5265 17.2245 16.5265C17.1774 16.5265 17.1387 16.567 17.1387 16.6177Z" fill="#F4F2EC" stroke="#F4F2EC" stroke-width="0.0121414"/>
<path d="M16.9824 17.0338C16.9824 17.0845 17.0212 17.125 17.0683 17.125C17.1153 17.125 17.1541 17.0845 17.1541 17.0338C17.1541 16.9831 17.1153 16.9426 17.0683 16.9426C17.0212 16.9426 16.9824 16.9831 16.9824 17.0338Z" fill="#F4F2EC" stroke="#F4F2EC" stroke-width="0.0121414"/>
<path d="M16.6895 17.3943C16.6895 17.445 16.7282 17.4855 16.7753 17.4855C16.8224 17.4855 16.8611 17.445 16.8611 17.3943C16.8611 17.3436 16.8224 17.3031 16.7753 17.3031C16.7282 17.3031 16.6895 17.3436 16.6895 17.3943Z" fill="#F4F2EC" stroke="#F4F2EC" stroke-width="0.0121414"/>
<path d="M16.6113 17.6992C16.6113 17.7499 16.6501 17.7904 16.6972 17.7904C16.7442 17.7904 16.783 17.7499 16.783 17.6992C16.783 17.6485 16.7442 17.608 16.6972 17.608C16.6501 17.608 16.6113 17.6485 16.6113 17.6992Z" fill="#F4F2EC" stroke="#F4F2EC" stroke-width="0.0121414"/>
<path d="M15.8485 18.129C15.8485 18.172 15.8814 18.2063 15.9212 18.2063C15.9611 18.2063 15.9939 18.172 15.9939 18.129C15.9939 18.086 15.9611 18.0517 15.9212 18.0517C15.8814 18.0517 15.8485 18.086 15.8485 18.129Z" fill="#F4F2EC" stroke="#F4F2EC" stroke-width="0.0121414"/>
<path d="M15.247 17.9906C15.247 18.0336 15.2798 18.0679 15.3197 18.0679C15.3595 18.0679 15.3924 18.0336 15.3924 17.9906C15.3924 17.9476 15.3595 17.9133 15.3197 17.9133C15.2798 17.9133 15.247 17.9476 15.247 17.9906Z" fill="#F4F2EC" stroke="#F4F2EC" stroke-width="0.0121414"/>
<path d="M14.7235 17.7128C14.7235 17.7558 14.7564 17.7901 14.7962 17.7901C14.8361 17.7901 14.8689 17.7558 14.8689 17.7128C14.8689 17.6697 14.8361 17.6355 14.7962 17.6355C14.7564 17.6355 14.7235 17.6697 14.7235 17.7128Z" fill="#F4F2EC" stroke="#F4F2EC" stroke-width="0.0121414"/>
<path d="M14.6688 17.3802C14.6688 17.4233 14.7017 17.4575 14.7415 17.4575C14.7814 17.4575 14.8142 17.4233 14.8142 17.3802C14.8142 17.3372 14.7814 17.3029 14.7415 17.3029C14.7017 17.3029 14.6688 17.3372 14.6688 17.3802Z" fill="#F4F2EC" stroke="#F4F2EC" stroke-width="0.0121414"/>
<path d="M14.329 17.297C14.329 17.34 14.3619 17.3743 14.4017 17.3743C14.4415 17.3743 14.4744 17.34 14.4744 17.297C14.4744 17.254 14.4415 17.2197 14.4017 17.2197C14.3619 17.2197 14.329 17.254 14.329 17.297Z" fill="#F4F2EC" stroke="#F4F2EC" stroke-width="0.0121414"/>
<path d="M14.411 16.9364C14.411 16.9794 14.4439 17.0137 14.4837 17.0137C14.5236 17.0137 14.5564 16.9794 14.5564 16.9364C14.5564 16.8934 14.5236 16.8591 14.4837 16.8591C14.4439 16.8591 14.411 16.8934 14.411 16.9364Z" fill="#F4F2EC" stroke="#F4F2EC" stroke-width="0.0121414"/>
<path d="M14.122 16.7145C14.122 16.7575 14.1548 16.7918 14.1947 16.7918C14.2345 16.7918 14.2674 16.7575 14.2674 16.7145C14.2674 16.6715 14.2345 16.6372 14.1947 16.6372C14.1548 16.6372 14.122 16.6715 14.122 16.7145Z" fill="#F4F2EC" stroke="#F4F2EC" stroke-width="0.0121414"/>
<path d="M14.329 16.4649C14.329 16.5079 14.3619 16.5422 14.4017 16.5422C14.4415 16.5422 14.4744 16.5079 14.4744 16.4649C14.4744 16.4219 14.4415 16.3876 14.4017 16.3876C14.3619 16.3876 14.329 16.4219 14.329 16.4649Z" fill="#F4F2EC" stroke="#F4F2EC" stroke-width="0.0121414"/>
<path d="M14.122 16.16C14.122 16.2031 14.1548 16.2373 14.1947 16.2373C14.2345 16.2373 14.2674 16.2031 14.2674 16.16C14.2674 16.117 14.2345 16.0827 14.1947 16.0827C14.1548 16.0827 14.122 16.117 14.122 16.16Z" fill="#F4F2EC" stroke="#F4F2EC" stroke-width="0.0121414"/>
<path d="M14.411 15.9657C14.411 16.0087 14.4439 16.043 14.4837 16.043C14.5236 16.043 14.5564 16.0087 14.5564 15.9657C14.5564 15.9227 14.5236 15.8884 14.4837 15.8884C14.4439 15.8884 14.411 15.9227 14.411 15.9657Z" fill="#F4F2EC" stroke="#F4F2EC" stroke-width="0.0121414"/>
<path d="M14.3017 15.6327C14.3017 15.6757 14.3345 15.71 14.3744 15.71C14.4142 15.71 14.4471 15.6757 14.4471 15.6327C14.4471 15.5897 14.4142 15.5554 14.3744 15.5554C14.3345 15.5554 14.3017 15.5897 14.3017 15.6327Z" fill="#F4F2EC" stroke="#F4F2EC" stroke-width="0.0121414"/>
<path d="M14.6688 15.5218C14.6688 15.5649 14.7017 15.5991 14.7415 15.5991C14.7814 15.5991 14.8142 15.5649 14.8142 15.5218C14.8142 15.4788 14.7814 15.4445 14.7415 15.4445C14.7017 15.4445 14.6688 15.4788 14.6688 15.5218Z" fill="#F4F2EC" stroke="#F4F2EC" stroke-width="0.0121414"/>
<path d="M14.6962 15.1888C14.6962 15.2319 14.7291 15.2661 14.7689 15.2661C14.8087 15.2661 14.8416 15.2319 14.8416 15.1888C14.8416 15.1458 14.8087 15.1115 14.7689 15.1115C14.7291 15.1115 14.6962 15.1458 14.6962 15.1888Z" fill="#F4F2EC" stroke="#F4F2EC" stroke-width="0.0121414"/>
<path d="M15.0907 15.1888C15.0907 15.2319 15.1236 15.2661 15.1634 15.2661C15.2032 15.2661 15.2361 15.2319 15.2361 15.1888C15.2361 15.1458 15.2032 15.1115 15.1634 15.1115C15.1236 15.1115 15.0907 15.1458 15.0907 15.1888Z" fill="#F4F2EC" stroke="#F4F2EC" stroke-width="0.0121414"/>
<path d="M15.247 14.8563C15.247 14.8993 15.2798 14.9336 15.3197 14.9336C15.3595 14.9336 15.3924 14.8993 15.3924 14.8563C15.3924 14.8133 15.3595 14.779 15.3197 14.779C15.2798 14.779 15.247 14.8133 15.247 14.8563Z" fill="#F4F2EC" stroke="#F4F2EC" stroke-width="0.0121414"/>
<path d="M15.5907 15.0223C15.5907 15.0654 15.6236 15.0996 15.6634 15.0996C15.7032 15.0996 15.7361 15.0654 15.7361 15.0223C15.7361 14.9793 15.7032 14.945 15.6634 14.945C15.6236 14.945 15.5907 14.9793 15.5907 15.0223Z" fill="#F4F2EC" stroke="#F4F2EC" stroke-width="0.0121414"/>
<path d="M15.8798 14.7728C15.8798 14.8158 15.9126 14.8501 15.9525 14.8501C15.9923 14.8501 16.0252 14.8158 16.0252 14.7728C16.0252 14.7298 15.9923 14.6955 15.9525 14.6955C15.9126 14.6955 15.8798 14.7298 15.8798 14.7728Z" fill="#F4F2EC" stroke="#F4F2EC" stroke-width="0.0121414"/>
<path d="M16.1415 15.0224C16.1415 15.0654 16.1744 15.0996 16.2142 15.0996C16.254 15.0996 16.2869 15.0654 16.2869 15.0224C16.2869 14.9793 16.254 14.9451 16.2142 14.9451C16.1744 14.9451 16.1415 14.9793 16.1415 15.0224Z" fill="#F4F2EC" stroke="#F4F2EC" stroke-width="0.0121414"/>
<path d="M16.4813 14.8839C16.4813 14.9269 16.5142 14.9612 16.554 14.9612C16.5939 14.9612 16.6267 14.9269 16.6267 14.8839C16.6267 14.8409 16.5939 14.8066 16.554 14.8066C16.5142 14.8066 16.4813 14.8409 16.4813 14.8839Z" fill="#F4F2EC" stroke="#F4F2EC" stroke-width="0.0121414"/>
<path d="M16.6142 15.2167C16.6142 15.2597 16.647 15.294 16.6869 15.294C16.7267 15.294 16.7596 15.2597 16.7596 15.2167C16.7596 15.1737 16.7267 15.1394 16.6869 15.1394C16.647 15.1394 16.6142 15.1737 16.6142 15.2167Z" fill="#F4F2EC" stroke="#F4F2EC" stroke-width="0.0121414"/>
<path d="M16.9813 15.1613C16.9813 15.2043 17.0142 15.2386 17.054 15.2386C17.0939 15.2386 17.1267 15.2043 17.1267 15.1613C17.1267 15.1182 17.0939 15.084 17.054 15.084C17.0142 15.084 16.9813 15.1182 16.9813 15.1613Z" fill="#F4F2EC" stroke="#F4F2EC" stroke-width="0.0121414"/>
<path d="M17.036 15.494C17.036 15.537 17.0689 15.5713 17.1087 15.5713C17.1486 15.5713 17.1814 15.537 17.1814 15.494C17.1814 15.451 17.1486 15.4167 17.1087 15.4167C17.0689 15.4167 17.036 15.451 17.036 15.494Z" fill="#F4F2EC" stroke="#F4F2EC" stroke-width="0.0121414"/>
<path d="M17.372 15.6051C17.372 15.6481 17.4048 15.6824 17.4447 15.6824C17.4845 15.6824 17.5174 15.6481 17.5174 15.6051C17.5174 15.5621 17.4845 15.5278 17.4447 15.5278C17.4048 15.5278 17.372 15.5621 17.372 15.6051Z" fill="#F4F2EC" stroke="#F4F2EC" stroke-width="0.0121414"/>
<path d="M17.3212 15.9381C17.3212 15.9811 17.3541 16.0154 17.3939 16.0154C17.4337 16.0154 17.4666 15.9811 17.4666 15.9381C17.4666 15.8951 17.4337 15.8608 17.3939 15.8608C17.3541 15.8608 17.3212 15.8951 17.3212 15.9381Z" fill="#F4F2EC" stroke="#F4F2EC" stroke-width="0.0121414"/>
<path d="M17.6102 16.132C17.6102 16.175 17.6431 16.2093 17.6829 16.2093C17.7228 16.2093 17.7556 16.175 17.7556 16.132C17.7556 16.0889 17.7228 16.0547 17.6829 16.0547C17.6431 16.0547 17.6102 16.0889 17.6102 16.132Z" fill="#F4F2EC" stroke="#F4F2EC" stroke-width="0.0121414"/>
<path d="M17.4032 16.4095C17.4032 16.4526 17.4361 16.4868 17.4759 16.4868C17.5157 16.4868 17.5486 16.4526 17.5486 16.4095C17.5486 16.3665 17.5157 16.3322 17.4759 16.3322C17.4361 16.3322 17.4032 16.3665 17.4032 16.4095Z" fill="#F4F2EC" stroke="#F4F2EC" stroke-width="0.0121414"/>
<path d="M17.6102 16.7144C17.6102 16.7574 17.6431 16.7917 17.6829 16.7917C17.7228 16.7917 17.7556 16.7574 17.7556 16.7144C17.7556 16.6714 17.7228 16.6371 17.6829 16.6371C17.6431 16.6371 17.6102 16.6714 17.6102 16.7144Z" fill="#F4F2EC" stroke="#F4F2EC" stroke-width="0.0121414"/>
<path d="M17.3485 16.9364C17.3485 16.9794 17.3814 17.0137 17.4212 17.0137C17.4611 17.0137 17.4939 16.9794 17.4939 16.9364C17.4939 16.8934 17.4611 16.8591 17.4212 16.8591C17.3814 16.8591 17.3485 16.8934 17.3485 16.9364Z" fill="#F4F2EC" stroke="#F4F2EC" stroke-width="0.0121414"/>
<path d="M17.4267 17.2692C17.4267 17.3122 17.4595 17.3465 17.4994 17.3465C17.5392 17.3465 17.5721 17.3122 17.5721 17.2692C17.5721 17.2261 17.5392 17.1919 17.4994 17.1919C17.4595 17.1919 17.4267 17.2261 17.4267 17.2692Z" fill="#F4F2EC" stroke="#F4F2EC" stroke-width="0.0121414"/>
<path d="M17.036 17.3802C17.036 17.4233 17.0689 17.4575 17.1087 17.4575C17.1486 17.4575 17.1814 17.4233 17.1814 17.3802C17.1814 17.3372 17.1486 17.3029 17.1087 17.3029C17.0689 17.3029 17.036 17.3372 17.036 17.3802Z" fill="#F4F2EC" stroke="#F4F2EC" stroke-width="0.0121414"/>
<path d="M17.0048 17.7406C17.0048 17.7836 17.0376 17.8179 17.0775 17.8179C17.1173 17.8179 17.1502 17.7836 17.1502 17.7406C17.1502 17.6976 17.1173 17.6633 17.0775 17.6633C17.0376 17.6633 17.0048 17.6976 17.0048 17.7406Z" fill="#F4F2EC" stroke="#F4F2EC" stroke-width="0.0121414"/>
<path d="M16.454 18.0182C16.454 18.0612 16.4869 18.0955 16.5267 18.0955C16.5665 18.0955 16.5994 18.0612 16.5994 18.0182C16.5994 17.9751 16.5665 17.9409 16.5267 17.9409C16.4869 17.9409 16.454 17.9751 16.454 18.0182Z" fill="#F4F2EC" stroke="#F4F2EC" stroke-width="0.0121414"/>
<path d="M16.1951 18.2819C16.1951 18.3172 16.2221 18.3453 16.2547 18.3453C16.2873 18.3453 16.3142 18.3172 16.3142 18.2819C16.3142 18.2465 16.2873 18.2185 16.2547 18.2185C16.2221 18.2185 16.1951 18.2465 16.1951 18.2819Z" fill="#F4F2EC" stroke="#F4F2EC" stroke-width="0.0121414"/>
<path d="M15.5115 18.2819C15.5115 18.3172 15.5385 18.3453 15.5711 18.3453C15.6037 18.3453 15.6306 18.3172 15.6306 18.2819C15.6306 18.2465 15.6037 18.2185 15.5711 18.2185C15.5385 18.2185 15.5115 18.2465 15.5115 18.2819Z" fill="#F4F2EC" stroke="#F4F2EC" stroke-width="0.0121414"/>
<path d="M14.8553 18.0597C14.8553 18.0951 14.8822 18.1231 14.9148 18.1231C14.9474 18.1231 14.9744 18.0951 14.9744 18.0597C14.9744 18.0244 14.9474 17.9963 14.9148 17.9963C14.8822 17.9963 14.8553 18.0244 14.8553 18.0597Z" fill="#F4F2EC" stroke="#F4F2EC" stroke-width="0.0121414"/>
<path d="M14.3279 17.6439C14.3279 17.6793 14.3549 17.7073 14.3875 17.7073C14.4201 17.7073 14.4471 17.6793 14.4471 17.6439C14.4471 17.6086 14.4201 17.5805 14.3875 17.5805C14.3549 17.5805 14.3279 17.6086 14.3279 17.6439Z" fill="#F4F2EC" stroke="#F4F2EC" stroke-width="0.0121414"/>
<path d="M13.9842 17.089C13.9842 17.1244 14.0112 17.1524 14.0437 17.1524C14.0763 17.1524 14.1033 17.1244 14.1033 17.089C14.1033 17.0537 14.0763 17.0256 14.0437 17.0256C14.0112 17.0256 13.9842 17.0537 13.9842 17.089Z" fill="#F4F2EC" stroke="#F4F2EC" stroke-width="0.0121414"/>
<path d="M13.9373 16.4511C13.9373 16.4864 13.9643 16.5145 13.9969 16.5145C14.0294 16.5145 14.0564 16.4864 14.0564 16.4511C14.0564 16.4157 14.0294 16.3877 13.9969 16.3877C13.9643 16.3877 13.9373 16.4157 13.9373 16.4511Z" fill="#F4F2EC" stroke="#F4F2EC" stroke-width="0.0121414"/>
<path d="M13.9842 15.841C13.9842 15.8763 14.0112 15.9044 14.0437 15.9044C14.0763 15.9044 14.1033 15.8763 14.1033 15.841C14.1033 15.8056 14.0763 15.7776 14.0437 15.7776C14.0112 15.7776 13.9842 15.8056 13.9842 15.841Z" fill="#F4F2EC" stroke="#F4F2EC" stroke-width="0.0121414"/>
<path d="M14.3279 15.2584C14.3279 15.2938 14.3549 15.3218 14.3875 15.3218C14.4201 15.3218 14.4471 15.2938 14.4471 15.2584C14.4471 15.2231 14.4201 15.195 14.3875 15.195C14.3549 15.195 14.3279 15.2231 14.3279 15.2584Z" fill="#F4F2EC" stroke="#F4F2EC" stroke-width="0.0121414"/>
<path d="M14.8787 14.8424C14.8787 14.8778 14.9057 14.9058 14.9383 14.9058C14.9708 14.9058 14.9978 14.8778 14.9978 14.8424C14.9978 14.8071 14.9708 14.779 14.9383 14.779C14.9057 14.779 14.8787 14.8071 14.8787 14.8424Z" fill="#F4F2EC" stroke="#F4F2EC" stroke-width="0.0121414"/>
<path d="M15.5115 14.6205C15.5115 14.6558 15.5385 14.6839 15.5711 14.6839C15.6037 14.6839 15.6306 14.6558 15.6306 14.6205C15.6306 14.5852 15.6037 14.5571 15.5711 14.5571C15.5385 14.5571 15.5115 14.5852 15.5115 14.6205Z" fill="#F4F2EC" stroke="#F4F2EC" stroke-width="0.0121414"/>
<path d="M16.1951 14.6205C16.1951 14.6558 16.2221 14.6839 16.2547 14.6839C16.2873 14.6839 16.3142 14.6558 16.3142 14.6205C16.3142 14.5852 16.2873 14.5571 16.2547 14.5571C16.2221 14.5571 16.1951 14.5852 16.1951 14.6205Z" fill="#F4F2EC" stroke="#F4F2EC" stroke-width="0.0121414"/>
<path d="M16.8513 14.87C16.8513 14.9054 16.8783 14.9334 16.9109 14.9334C16.9435 14.9334 16.9705 14.9054 16.9705 14.87C16.9705 14.8347 16.9435 14.8066 16.9109 14.8066C16.8783 14.8066 16.8513 14.8347 16.8513 14.87Z" fill="#F4F2EC" stroke="#F4F2EC" stroke-width="0.0121414"/>
<path d="M17.3748 15.2584C17.3748 15.2938 17.4018 15.3218 17.4344 15.3218C17.4669 15.3218 17.4939 15.2938 17.4939 15.2584C17.4939 15.2231 17.4669 15.195 17.4344 15.195C17.4018 15.195 17.3748 15.2231 17.3748 15.2584Z" fill="#F4F2EC" stroke="#F4F2EC" stroke-width="0.0121414"/>
<path d="M17.7146 15.7858C17.7146 15.8211 17.7416 15.8492 17.7742 15.8492C17.8068 15.8492 17.8338 15.8211 17.8338 15.7858C17.8338 15.7504 17.8068 15.7224 17.7742 15.7224C17.7416 15.7224 17.7146 15.7504 17.7146 15.7858Z" fill="#F4F2EC" stroke="#F4F2EC" stroke-width="0.0121414"/>
<path d="M17.8474 16.4235C17.8474 16.4588 17.8744 16.4869 17.907 16.4869C17.9396 16.4869 17.9666 16.4588 17.9666 16.4235C17.9666 16.3881 17.9396 16.3601 17.907 16.3601C17.8744 16.3601 17.8474 16.3881 17.8474 16.4235Z" fill="#F4F2EC" stroke="#F4F2EC" stroke-width="0.0121414"/>
<path d="M17.7654 17.089C17.7654 17.1244 17.7924 17.1524 17.825 17.1524C17.8576 17.1524 17.8846 17.1244 17.8846 17.089C17.8846 17.0537 17.8576 17.0256 17.825 17.0256C17.7924 17.0256 17.7654 17.0537 17.7654 17.089Z" fill="#F4F2EC" stroke="#F4F2EC" stroke-width="0.0121414"/>
<path d="M17.4295 17.6439C17.4295 17.6793 17.4565 17.7073 17.489 17.7073C17.5216 17.7073 17.5486 17.6793 17.5486 17.6439C17.5486 17.6086 17.5216 17.5805 17.489 17.5805C17.4565 17.5805 17.4295 17.6086 17.4295 17.6439Z" fill="#F4F2EC" stroke="#F4F2EC" stroke-width="0.0121414"/>
<path d="M16.8513 18.0597C16.8513 18.0951 16.8783 18.1231 16.9109 18.1231C16.9435 18.1231 16.9705 18.0951 16.9705 18.0597C16.9705 18.0244 16.9435 17.9963 16.9109 17.9963C16.8783 17.9963 16.8513 18.0244 16.8513 18.0597Z" fill="#F4F2EC" stroke="#F4F2EC" stroke-width="0.0121414"/>
<ellipse rx="0.727272" ry="0.768275" transform="matrix(-1 0 0 1 9.24538 22.28)" fill="#F4F2EC"/>
<ellipse rx="0.727272" ry="0.768275" transform="matrix(-1 0 0 1 9.66335 24.914)" fill="#F4F2EC"/>
<ellipse rx="0.727272" ry="0.768276" transform="matrix(-1 0 0 1 21.4993 24.9262)" fill="#F4F2EC"/>
<ellipse rx="0.727272" ry="0.768275" transform="matrix(-1 0 0 1 7.17117 19.8654)" fill="#F4F2EC"/>
<ellipse rx="0.727272" ry="0.768275" transform="matrix(-1 0 0 1 5.92117 16.7922)" fill="#F4F2EC"/>
<ellipse rx="0.727272" ry="0.768276" transform="matrix(-1 0 0 1 5.92117 13.28)" fill="#F4F2EC"/>
<ellipse rx="0.727272" ry="0.768275" transform="matrix(-1 0 0 1 6.7532 10.4265)" fill="#F4F2EC"/>
<ellipse rx="0.727272" ry="0.768275" transform="matrix(-1 0 0 1 9.24538 7.79243)" fill="#F4F2EC"/>
<ellipse rx="0.727271" ry="0.768275" transform="matrix(-1 0 0 1 12.3665 6.03633)" fill="#F4F2EC"/>
<ellipse rx="0.727272" ry="0.768276" transform="matrix(-1 0 0 1 15.8977 5.37788)" fill="#F4F2EC"/>
<ellipse rx="0.727272" ry="0.768275" transform="matrix(-1 0 0 1 19.429 6.03633)" fill="#F4F2EC"/>
<ellipse rx="0.727272" ry="0.768275" transform="matrix(-1 0 0 1 22.3352 7.5727)" fill="#F4F2EC"/>
<ellipse rx="0.727272" ry="0.768276" transform="matrix(-1 0 0 1 24.6243 10.207)" fill="#F4F2EC"/>
<ellipse rx="0.727272" ry="0.768276" transform="matrix(-1 0 0 1 25.8704 13.28)" fill="#F4F2EC"/>
<ellipse rx="0.727272" ry="0.768276" transform="matrix(-1 0 0 1 26.0774 16.353)" fill="#F4F2EC"/>
<ellipse rx="0.727272" ry="0.768275" transform="matrix(-1 0 0 1 24.8274 19.6457)" fill="#F4F2EC"/>
<ellipse rx="0.727272" ry="0.768275" transform="matrix(-1 0 0 1 22.5462 22.4994)" fill="#F4F2EC"/>
<ellipse rx="0.623376" ry="0.658521" transform="matrix(-1 0 0 1 11.0094 27.2191)" fill="#F4F2EC"/>
<ellipse rx="0.623376" ry="0.658523" transform="matrix(-1 0 0 1 20.6696 27.1392)" fill="#F4F2EC"/>
<ellipse rx="0.623376" ry="0.658523" transform="matrix(-1 0 0 1 6.85319 25.0237)" fill="#F4F2EC"/>
<ellipse rx="0.623376" ry="0.658522" transform="matrix(-1 0 0 1 6.43912 22.3897)" fill="#F4F2EC"/>
<ellipse rx="0.623376" ry="0.658522" transform="matrix(-1 0 0 1 3.73991 21.7313)" fill="#F4F2EC"/>
<ellipse rx="0.623376" ry="0.658522" transform="matrix(-1 0 0 1 4.361 18.8777)" fill="#F4F2EC"/>
<ellipse rx="0.623376" ry="0.658521" transform="matrix(-1 0 0 1 2.07584 17.1216)" fill="#F4F2EC"/>
<ellipse rx="0.623376" ry="0.658522" transform="matrix(-1 0 0 1 3.73991 15.1461)" fill="#F4F2EC"/>
<ellipse rx="0.623376" ry="0.658522" transform="matrix(-1 0 0 1 2.07584 12.7315)" fill="#F4F2EC"/>
<ellipse rx="0.623376" ry="0.658522" transform="matrix(-1 0 0 1 4.361 11.1946)" fill="#F4F2EC"/>
<ellipse rx="0.623376" ry="0.658522" transform="matrix(-1 0 0 1 3.53287 8.56061)" fill="#F4F2EC"/>
<ellipse rx="0.623376" ry="0.658522" transform="matrix(-1 0 0 1 6.43912 7.68292)" fill="#F4F2EC"/>
<ellipse rx="0.623376" ry="0.658522" transform="matrix(-1 0 0 1 6.65006 5.04889)" fill="#F4F2EC"/>
<ellipse rx="0.623376" ry="0.658522" transform="matrix(-1 0 0 1 9.76725 5.04889)" fill="#F4F2EC"/>
<ellipse rx="0.623376" ry="0.658522" transform="matrix(-1 0 0 1 11.0094 2.41461)" fill="#F4F2EC"/>
<ellipse rx="0.623376" ry="0.658522" transform="matrix(-1 0 0 1 13.7126 3.73175)" fill="#F4F2EC"/>
<ellipse rx="0.623376" ry="0.658522" transform="matrix(-1 0 0 1 16.0016 1.75616)" fill="#F4F2EC"/>
<ellipse rx="0.623376" ry="0.658522" transform="matrix(-1 0 0 1 18.0758 3.7315)" fill="#F4F2EC"/>
<ellipse rx="0.623376" ry="0.658522" transform="matrix(-1 0 0 1 20.7751 2.63385)" fill="#F4F2EC"/>
<ellipse rx="0.623376" ry="0.658522" transform="matrix(-1 0 0 1 21.818 5.26837)" fill="#F4F2EC"/>
<ellipse rx="0.623376" ry="0.658522" transform="matrix(-1 0 0 1 24.7282 4.82916)" fill="#F4F2EC"/>
<ellipse rx="0.623376" ry="0.658522" transform="matrix(-1 0 0 1 25.1422 7.46344)" fill="#F4F2EC"/>
<ellipse rx="0.623376" ry="0.658522" transform="matrix(-1 0 0 1 27.8415 8.34112)" fill="#F4F2EC"/>
<ellipse rx="0.623376" ry="0.658522" transform="matrix(-1 0 0 1 27.4274 10.9756)" fill="#F4F2EC"/>
<ellipse rx="0.623376" ry="0.658522" transform="matrix(-1 0 0 1 29.7126 12.5119)" fill="#F4F2EC"/>
<ellipse rx="0.623376" ry="0.658522" transform="matrix(-1 0 0 1 28.0524 14.7068)" fill="#F4F2EC"/>
<ellipse rx="0.623376" ry="0.658521" transform="matrix(-1 0 0 1 29.7126 17.1215)" fill="#F4F2EC"/>
<ellipse rx="0.623376" ry="0.658522" transform="matrix(-1 0 0 1 27.6344 18.8777)" fill="#F4F2EC"/>
<ellipse rx="0.623376" ry="0.658522" transform="matrix(-1 0 0 1 28.2594 21.5118)" fill="#F4F2EC"/>
<ellipse rx="0.623376" ry="0.658522" transform="matrix(-1 0 0 1 25.1422 22.3897)" fill="#F4F2EC"/>
<ellipse rx="0.623376" ry="0.658522" transform="matrix(-1 0 0 1 24.9313 25.2432)" fill="#F4F2EC"/>
<ellipse rx="0.51948" ry="0.548768" transform="matrix(-1 0 0 1 3.63677 24.4753)" fill="#F4F2EC"/>
<ellipse rx="0.51948" ry="0.548768" transform="matrix(-1 0 0 1 0.933645 20.0846)" fill="#F4F2EC"/>
<ellipse rx="0.51948" ry="0.548769" transform="matrix(-1 0 0 1 0.519583 15.0363)" fill="#F4F2EC"/>
<ellipse rx="0.51948" ry="0.548769" transform="matrix(-1 0 0 1 0.933645 10.2072)" fill="#F4F2EC"/>
<ellipse rx="0.51948" ry="0.548768" transform="matrix(-1 0 0 1 3.63677 5.59734)" fill="#F4F2EC"/>
<ellipse rx="0.51948" ry="0.548768" transform="matrix(-1 0 0 1 8.00005 2.30466)" fill="#F4F2EC"/>
<ellipse rx="0.51948" ry="0.548768" transform="matrix(-1 0 0 1 12.9883 0.548753)" fill="#F4F2EC"/>
<ellipse rx="0.51948" ry="0.548768" transform="matrix(-1 0 0 1 18.3868 0.548753)" fill="#F4F2EC"/>
<ellipse rx="0.51948" ry="0.548768" transform="matrix(-1 0 0 1 23.586 2.52409)" fill="#F4F2EC"/>
<ellipse rx="0.51948" ry="0.548768" transform="matrix(-1 0 0 1 27.7383 5.59734)" fill="#F4F2EC"/>
<ellipse rx="0.51948" ry="0.548768" transform="matrix(-1 0 0 1 30.4415 9.76799)" fill="#F4F2EC"/>
<ellipse rx="0.51948" ry="0.548769" transform="matrix(-1 0 0 1 31.4805 14.8168)" fill="#F4F2EC"/>
<ellipse rx="0.51948" ry="0.548767" transform="matrix(-1 0 0 1 30.8555 20.0849)" fill="#F4F2EC"/>
<ellipse rx="0.51948" ry="0.548768" transform="matrix(-1 0 0 1 28.1563 24.4753)" fill="#F4F2EC"/>
<path d="M10.4669 13.9866C10.4669 11.0409 12.7912 8.6371 15.7092 8.50251C19.0489 8.34846 21.6564 10.9862 21.4582 14.3172C21.3844 15.5568 20.8986 16.6856 20.1355 17.5691C19.2726 18.5683 18.8071 19.8491 18.8111 21.1682C18.8111 21.1708 18.8111 21.1728 18.8111 21.1743L18.8232 21.5956C18.8232 21.88 18.5922 22.1104 18.3073 22.1104H13.6516C13.3667 22.1104 13.1358 21.88 13.1358 21.5956L13.1237 21.1743C13.1237 21.1728 13.1237 21.1708 13.1237 21.1682C13.1278 19.8399 12.6462 18.5595 11.782 17.5491C10.962 16.5904 10.4669 15.3462 10.4669 13.9866Z" stroke="#F4F2EC" stroke-width="0.413568" stroke-miterlimit="10"/>
</svg>
