<svg width="30" height="31" viewBox="0 0 30 31" fill="none" xmlns="http://www.w3.org/2000/svg">
<path fill-rule="evenodd" clip-rule="evenodd" d="M15 0.201172C6.71573 0.201172 0 6.9169 0 15.2012C0 23.4854 6.71573 30.2012 15 30.2012C23.2843 30.2012 30 23.4854 30 15.2012C30 6.9169 23.2843 0.201172 15 0.201172ZM16.2214 19.9362C16.0735 20.0922 15.7847 20.1237 15.7847 20.1237H14.8284C14.8284 20.1237 12.7186 20.2481 10.86 18.3492C8.83321 16.2775 7.04349 12.1671 7.04349 12.1671C7.04349 12.1671 6.94019 11.8975 7.0521 11.7676C7.17809 11.6209 7.52164 11.6117 7.52164 11.6117L9.80749 11.5971C9.80749 11.5971 10.0227 11.6317 10.1769 11.7431C10.3044 11.8352 10.3756 12.0065 10.3756 12.0065C10.3756 12.0065 10.745 12.9237 11.2341 13.7533C12.1896 15.3734 12.6341 15.7275 12.9581 15.5539C13.4308 15.3012 13.2891 13.264 13.2891 13.264C13.2891 13.264 13.2977 12.525 13.0512 12.1955C12.8603 11.9405 12.5003 11.866 12.3414 11.8452C12.2123 11.8283 12.4236 11.5349 12.6975 11.4035C13.1091 11.2061 13.8353 11.1946 14.6938 11.203C15.3629 11.21 15.5554 11.2507 15.8168 11.3129C16.4234 11.4566 16.4045 11.9171 16.3636 12.9109C16.3514 13.2081 16.3372 13.5531 16.3372 13.9515C16.3372 14.041 16.3345 14.1365 16.3318 14.2347C16.3176 14.7438 16.3014 15.3269 16.6432 15.5439C16.8185 15.6545 17.2465 15.56 18.3178 13.7748C18.8257 12.9283 19.206 11.9336 19.206 11.9336C19.206 11.9336 19.2898 11.7561 19.4189 11.6801C19.5512 11.6025 19.7296 11.6263 19.7296 11.6263L22.1352 11.6117C22.1352 11.6117 22.8583 11.5264 22.9749 11.8475C23.0977 12.1832 22.7049 12.9683 21.722 14.2542C20.7896 15.4743 20.3359 15.9235 20.3775 16.3208C20.408 16.6111 20.7029 16.8737 21.2689 17.389C22.4504 18.4658 22.7671 19.0323 22.8432 19.1684C22.8495 19.1797 22.8541 19.188 22.8575 19.1934C23.3873 20.0561 22.2698 20.1237 22.2698 20.1237L20.1326 20.1529C20.1326 20.1529 19.674 20.242 19.0699 19.8348C18.7534 19.6218 18.4442 19.2737 18.1496 18.9422C17.6998 18.436 17.2843 17.9683 16.9296 18.0788C16.3341 18.2647 16.352 19.5237 16.352 19.5237C16.352 19.5237 16.3567 19.7934 16.2214 19.9362Z" fill="#9A8861"/>
</svg>
