<svg width="20" height="20" viewBox="0 0 20 20" fill="none" xmlns="http://www.w3.org/2000/svg">
<path d="M11.7654 11.7668C11.5365 12.0125 11.2605 12.2095 10.9538 12.3461C10.6472 12.4828 10.3161 12.5562 9.98044 12.5622C9.64476 12.5681 9.31133 12.5063 9.00004 12.3806C8.68875 12.2549 8.40597 12.0677 8.16857 11.8303C7.93117 11.5929 7.74403 11.3101 7.61829 10.9988C7.49255 10.6875 7.4308 10.3541 7.43673 10.0184C7.44265 9.68277 7.51612 9.35172 7.65276 9.04506C7.7894 8.73839 7.98641 8.46239 8.23203 8.23352M14.9487 14.9502C13.5242 16.036 11.7896 16.6376 9.9987 16.6668C4.16536 16.6668 0.832031 10.0002 0.832031 10.0002C1.86861 8.06843 3.30631 6.38069 5.0487 5.05018L14.9487 14.9502ZM8.2487 3.53352C8.82231 3.39925 9.40959 3.33213 9.9987 3.33352C15.832 3.33352 19.1654 10.0002 19.1654 10.0002C18.6595 10.9465 18.0562 11.8375 17.3654 12.6585L8.2487 3.53352Z" stroke="#3E3728" stroke-linecap="round" stroke-linejoin="round"/>
<path d="M0.832031 0.833496L19.1654 19.1668" stroke="#3E3728" stroke-linecap="round" stroke-linejoin="round"/>
</svg>
