<svg width="30" height="31" viewBox="0 0 30 31" fill="none" xmlns="http://www.w3.org/2000/svg">
<path fill-rule="evenodd" clip-rule="evenodd" d="M15 0.201172C6.71573 0.201172 0 6.9169 0 15.2012C0 23.4854 6.71573 30.2012 15 30.2012C23.2843 30.2012 30 23.4854 30 15.2012C30 6.9169 23.2843 0.201172 15 0.201172ZM11.702 7.24951C12.5554 7.21067 12.8281 7.20117 15.0007 7.20117H14.9983C17.1716 7.20117 17.4433 7.21067 18.2966 7.24951C19.1483 7.28851 19.73 7.42334 20.24 7.62118C20.7666 7.82535 21.2116 8.09868 21.6567 8.54369C22.1017 8.98836 22.375 9.43469 22.58 9.96087C22.7767 10.4695 22.9117 11.0509 22.9517 11.9026C22.99 12.7559 23 13.0286 23 15.2013C23 17.3739 22.99 17.6459 22.9517 18.4993C22.9117 19.3506 22.7767 19.9321 22.58 20.441C22.375 20.967 22.1017 21.4133 21.6567 21.858C21.2121 22.303 20.7665 22.577 20.2405 22.7813C19.7315 22.9792 19.1495 23.114 18.2978 23.153C17.4444 23.1918 17.1726 23.2013 14.9998 23.2013C12.8272 23.2013 12.5547 23.1918 11.7014 23.153C10.8499 23.114 10.2684 22.9792 9.75936 22.7813C9.23352 22.577 8.78719 22.303 8.34268 21.858C7.89784 21.4133 7.62451 20.967 7.42 20.4408C7.22234 19.9321 7.0875 19.3508 7.04833 18.4991C7.00967 17.6458 7 17.3739 7 15.2013C7 13.0286 7.01 12.7557 7.04817 11.9024C7.0865 11.051 7.2215 10.4695 7.41984 9.9607C7.62484 9.43469 7.89818 8.98836 8.34318 8.54369C8.78785 8.09885 9.23419 7.82551 9.76036 7.62118C10.269 7.42334 10.8504 7.28851 11.702 7.24951Z" fill="#9A8861"/>
<path fill-rule="evenodd" clip-rule="evenodd" d="M14.2831 8.64263C14.4225 8.64241 14.5724 8.64247 14.7341 8.64255L15.0008 8.64263C17.1368 8.64263 17.39 8.65029 18.2335 8.68863C19.0135 8.72429 19.4368 8.85463 19.7188 8.96413C20.0922 9.10913 20.3583 9.28247 20.6382 9.56247C20.9182 9.84247 21.0915 10.1091 21.2368 10.4825C21.3463 10.7641 21.4768 11.1875 21.5124 11.9675C21.5507 12.8108 21.559 13.0642 21.559 15.1992C21.559 17.3342 21.5507 17.5876 21.5124 18.4309C21.4767 19.2109 21.3463 19.6342 21.2368 19.9159C21.0918 20.2892 20.9182 20.5551 20.6382 20.8349C20.3582 21.1149 20.0923 21.2883 19.7188 21.4333C19.4372 21.5433 19.0135 21.6733 18.2335 21.7089C17.3901 21.7473 17.1368 21.7556 15.0008 21.7556C12.8646 21.7556 12.6114 21.7473 11.7681 21.7089C10.9881 21.6729 10.5647 21.5426 10.2826 21.4331C9.90923 21.2881 9.64256 21.1148 9.36256 20.8348C9.08256 20.5547 8.90922 20.2887 8.76389 19.9152C8.65438 19.6336 8.52388 19.2102 8.48838 18.4302C8.45005 17.5869 8.44238 17.3335 8.44238 15.1972C8.44238 13.0608 8.45005 12.8088 8.48838 11.9655C8.52405 11.1855 8.65438 10.7621 8.76389 10.4801C8.90889 10.1068 9.08256 9.84014 9.36256 9.56013C9.64256 9.28013 9.90923 9.1068 10.2826 8.96146C10.5646 8.85146 10.9881 8.72146 11.7681 8.68563C12.5061 8.65229 12.7921 8.64229 14.2831 8.64062V8.64263ZM19.2712 9.97097C18.7412 9.97097 18.3112 10.4005 18.3112 10.9306C18.3112 11.4607 18.7412 11.8907 19.2712 11.8907C19.8012 11.8907 20.2312 11.4607 20.2312 10.9306C20.2312 10.4006 19.8012 9.97064 19.2712 9.97064V9.97097ZM10.8924 15.201C10.8924 12.9322 12.7318 11.0927 15.0006 11.0926C17.2695 11.0926 19.1085 12.9322 19.1085 15.201C19.1085 17.4699 17.2696 19.3086 15.0008 19.3086C12.7319 19.3086 10.8924 17.4699 10.8924 15.201Z" fill="#9A8861"/>
<path d="M15.0007 12.5347C16.4734 12.5347 17.6674 13.7285 17.6674 15.2014C17.6674 16.674 16.4734 17.8681 15.0007 17.8681C13.5278 17.8681 12.334 16.674 12.334 15.2014C12.334 13.7285 13.5278 12.5347 15.0007 12.5347Z" fill="#9A8861"/>
</svg>
