<svg width="40" height="36" viewBox="0 0 40 36" fill="none" xmlns="http://www.w3.org/2000/svg">
<path d="M16.2216 26.9514L16.2216 26.9511C16.0452 25.4441 15.4499 24.0269 14.5404 22.8164C13.6823 21.6604 13.1791 20.2284 13.2004 18.6758C13.25 15.0676 16.1855 12.1107 19.7867 12.0256C23.5871 11.9405 26.6995 14.9964 26.6995 18.7751C26.6995 20.2785 26.2103 21.6677 25.374 22.7875L25.3734 22.7883C24.4573 24.0342 23.8476 25.4799 23.6639 27.0158L23.6638 27.0165L23.5917 27.6434C23.5917 27.6437 23.5917 27.644 23.5916 27.6443C23.5582 27.8963 23.31 28.1057 22.9793 28.1057H16.9134C16.5809 28.1057 16.3281 27.888 16.3012 27.646L16.3012 27.6455L16.2216 26.9514Z" stroke="#E6DECF" stroke-width="0.266668"/>
<path d="M20.2177 35.4907H19.5091C18.8657 35.4907 18.3379 34.9702 18.3379 34.3195V33.235H21.3817V34.3195C21.3889 34.9629 20.8684 35.4907 20.2177 35.4907Z" fill="#E6DECF"/>
<path d="M21.49 34.7533H18.4173C17.5425 34.7533 16.834 34.0447 16.834 33.1699V28.2391H23.0734V33.1699C23.0734 34.0447 22.3649 34.7533 21.49 34.7533Z" fill="#E6DECF"/>
<path d="M23.2605 29.432L16.6379 30.1261C16.421 30.1478 16.2402 29.9887 16.2402 29.7718C16.2402 29.5549 16.421 29.3525 16.6379 29.3308L23.2605 28.6367C23.4774 28.615 23.6581 28.7741 23.6581 28.991C23.6581 29.2151 23.4774 29.4103 23.2605 29.432Z" fill="#F4F2EC"/>
<path d="M23.2605 30.8418L16.6379 31.5358C16.421 31.5575 16.2402 31.3985 16.2402 31.1816C16.2402 30.9647 16.421 30.7622 16.6379 30.7405L23.2605 30.0465C23.4774 30.0248 23.6581 30.1838 23.6581 30.4007C23.6581 30.6176 23.4774 30.8201 23.2605 30.8418Z" fill="#F4F2EC"/>
<path d="M23.2605 32.2444L16.6379 32.9385C16.421 32.9601 16.2402 32.8011 16.2402 32.5842C16.2402 32.3673 16.421 32.1649 16.6379 32.1432L23.2605 31.4491C23.4774 31.4274 23.6581 31.5865 23.6581 31.8034C23.6581 32.0275 23.4774 32.2227 23.2605 32.2444Z" fill="#F4F2EC"/>
<path d="M23.2605 33.6543L16.6379 34.3483C16.421 34.37 16.2402 34.211 16.2402 33.9941C16.2402 33.7772 16.421 33.5747 16.6379 33.553L23.2605 32.859C23.4774 32.8373 23.6581 32.9963 23.6581 33.2132C23.6581 33.4374 23.4774 33.6326 23.2605 33.6543Z" fill="#F4F2EC"/>
<rect x="19.1018" y="24.2172" width="1.91378" height="3.87885" fill="#E6DECF" stroke="#E6DECF" stroke-width="0.0513001"/>
<path d="M23.1978 21.0281C23.1978 22.8485 21.7896 24.3213 20.0559 24.3213C18.3221 24.3213 16.9139 22.8485 16.9139 21.0281C16.9139 19.2077 18.3221 17.7348 20.0559 17.7348C21.7896 17.7348 23.1978 19.2077 23.1978 21.0281Z" fill="#E6DECF" stroke="#E6DECF" stroke-width="0.0699547"/>
<path d="M19.6237 22.0344C19.6237 22.117 19.5606 22.1831 19.4836 22.1831C19.4067 22.1831 19.3435 22.117 19.3435 22.0344C19.3435 21.9518 19.4067 21.8857 19.4836 21.8857C19.5606 21.8857 19.6237 21.9518 19.6237 22.0344Z" fill="#080501" stroke="#E6DECF" stroke-width="0.0151769"/>
<path d="M19.0651 21.4438C19.0651 21.5264 19.002 21.5926 18.925 21.5926C18.8481 21.5926 18.7849 21.5264 18.7849 21.4438C18.7849 21.3613 18.8481 21.2951 18.925 21.2951C19.002 21.2951 19.0651 21.3613 19.0651 21.4438Z" fill="#080501" stroke="#E6DECF" stroke-width="0.0151769"/>
<path d="M19.0007 21.027C19.0007 21.1096 18.9376 21.1758 18.8606 21.1758C18.7836 21.1758 18.7205 21.1096 18.7205 21.027C18.7205 20.9445 18.7836 20.8783 18.8606 20.8783C18.9376 20.8783 19.0007 20.9445 19.0007 21.027Z" fill="#080501" stroke="#E6DECF" stroke-width="0.0151769"/>
<path d="M19.0651 20.6449C19.0651 20.7274 19.002 20.7936 18.925 20.7936C18.8481 20.7936 18.7849 20.7274 18.7849 20.6449C18.7849 20.5623 18.8481 20.4961 18.925 20.4961C19.002 20.4961 19.0651 20.5623 19.0651 20.6449Z" fill="#080501" stroke="#E6DECF" stroke-width="0.0151769"/>
<path d="M19.2956 20.2627C19.2956 20.3452 19.2325 20.4114 19.1555 20.4114C19.0785 20.4114 19.0154 20.3452 19.0154 20.2627C19.0154 20.1801 19.0785 20.1139 19.1555 20.1139C19.2325 20.1139 19.2956 20.1801 19.2956 20.2627Z" fill="#080501" stroke="#E6DECF" stroke-width="0.0151769"/>
<path d="M19.6237 20.0195C19.6237 20.1021 19.5606 20.1682 19.4836 20.1682C19.4067 20.1682 19.3435 20.1021 19.3435 20.0195C19.3435 19.937 19.4067 19.8708 19.4836 19.8708C19.5606 19.8708 19.6237 19.937 19.6237 20.0195Z" fill="#080501" stroke="#E6DECF" stroke-width="0.0151769"/>
<path d="M20.0183 19.9154C20.0183 19.9979 19.9551 20.0641 19.8782 20.0641C19.8012 20.0641 19.7381 19.9979 19.7381 19.9154C19.7381 19.8328 19.8012 19.7667 19.8782 19.7667C19.9551 19.7667 20.0183 19.8328 20.0183 19.9154Z" fill="#080501" stroke="#E6DECF" stroke-width="0.0151769"/>
<path d="M20.446 19.9154C20.446 19.9979 20.3829 20.0641 20.3059 20.0641C20.2289 20.0641 20.1658 19.9979 20.1658 19.9154C20.1658 19.8328 20.2289 19.7667 20.3059 19.7667C20.3829 19.7667 20.446 19.8328 20.446 19.9154Z" fill="#080501" stroke="#E6DECF" stroke-width="0.0151769"/>
<path d="M20.8718 20.0196C20.8718 20.1021 20.8087 20.1683 20.7317 20.1683C20.6547 20.1683 20.5916 20.1021 20.5916 20.0196C20.5916 19.937 20.6547 19.8708 20.7317 19.8708C20.8087 19.8708 20.8718 19.937 20.8718 20.0196Z" fill="#080501" stroke="#E6DECF" stroke-width="0.0151769"/>
<path d="M21.1667 20.2975C21.1667 20.38 21.1036 20.4462 21.0266 20.4462C20.9496 20.4462 20.8865 20.38 20.8865 20.2975C20.8865 20.2149 20.9496 20.1488 21.0266 20.1488C21.1036 20.1488 21.1667 20.2149 21.1667 20.2975Z" fill="#080501" stroke="#E6DECF" stroke-width="0.0151769"/>
<path d="M21.4284 20.6795C21.4284 20.7621 21.3653 20.8283 21.2883 20.8283C21.2113 20.8283 21.1482 20.7621 21.1482 20.6795C21.1482 20.597 21.2113 20.5308 21.2883 20.5308C21.3653 20.5308 21.4284 20.597 21.4284 20.6795Z" fill="#080501" stroke="#E6DECF" stroke-width="0.0151769"/>
<path d="M21.4616 21.0617C21.4616 21.1443 21.3985 21.2105 21.3215 21.2105C21.2445 21.2105 21.1814 21.1443 21.1814 21.0617C21.1814 20.9792 21.2445 20.913 21.3215 20.913C21.3985 20.913 21.4616 20.9792 21.4616 21.0617Z" fill="#080501" stroke="#E6DECF" stroke-width="0.0151769"/>
<path d="M21.3972 21.4438C21.3972 21.5264 21.334 21.5926 21.2571 21.5926C21.1801 21.5926 21.117 21.5264 21.117 21.4438C21.117 21.3613 21.1801 21.2951 21.2571 21.2951C21.334 21.2951 21.3972 21.3613 21.3972 21.4438Z" fill="#080501" stroke="#E6DECF" stroke-width="0.0151769"/>
<path d="M21.1999 21.7912C21.1999 21.8738 21.1368 21.94 21.0598 21.94C20.9828 21.94 20.9197 21.8738 20.9197 21.7912C20.9197 21.7087 20.9828 21.6425 21.0598 21.6425C21.1368 21.6425 21.1999 21.7087 21.1999 21.7912Z" fill="#080501" stroke="#E6DECF" stroke-width="0.0151769"/>
<path d="M20.8386 22.0344C20.8386 22.117 20.7755 22.1831 20.6985 22.1831C20.6215 22.1831 20.5584 22.117 20.5584 22.0344C20.5584 21.9518 20.6215 21.8857 20.6985 21.8857C20.7755 21.8857 20.8386 21.9518 20.8386 22.0344Z" fill="#080501" stroke="#E6DECF" stroke-width="0.0151769"/>
<path d="M19.2956 21.7912C19.2956 21.8738 19.2325 21.94 19.1555 21.94C19.0785 21.94 19.0154 21.8738 19.0154 21.7912C19.0154 21.7087 19.0785 21.6425 19.1555 21.6425C19.2325 21.6425 19.2956 21.7087 19.2956 21.7912Z" fill="#080501" stroke="#E6DECF" stroke-width="0.0151769"/>
<path d="M19.6245 22.4513C19.6245 22.5147 19.5761 22.5653 19.5172 22.5653C19.4584 22.5653 19.4099 22.5147 19.4099 22.4513C19.4099 22.388 19.4584 22.3373 19.5172 22.3373C19.5761 22.3373 19.6245 22.388 19.6245 22.4513Z" fill="#080501" stroke="#E6DECF" stroke-width="0.0151769"/>
<path d="M19.8862 22.8334C19.8862 22.8968 19.8378 22.9474 19.7789 22.9474C19.7201 22.9474 19.6717 22.8968 19.6717 22.8334C19.6717 22.77 19.7201 22.7194 19.7789 22.7194C19.8378 22.7194 19.8862 22.77 19.8862 22.8334Z" fill="#080501" stroke="#E6DECF" stroke-width="0.0151769"/>
<path d="M20.5425 22.8334C20.5425 22.8968 20.494 22.9474 20.4352 22.9474C20.3763 22.9474 20.3279 22.8968 20.3279 22.8334C20.3279 22.77 20.3763 22.7194 20.4352 22.7194C20.494 22.7194 20.5425 22.77 20.5425 22.8334Z" fill="#080501" stroke="#E6DECF" stroke-width="0.0151769"/>
<path d="M20.7397 22.4513C20.7397 22.5147 20.6913 22.5653 20.6325 22.5653C20.5736 22.5653 20.5252 22.5147 20.5252 22.4513C20.5252 22.388 20.5736 22.3373 20.6325 22.3373C20.6913 22.3373 20.7397 22.388 20.7397 22.4513Z" fill="#080501" stroke="#E6DECF" stroke-width="0.0151769"/>
<path d="M21.2319 22.1734C21.2319 22.2367 21.1835 22.2874 21.1246 22.2874C21.0658 22.2874 21.0174 22.2367 21.0174 22.1734C21.0174 22.11 21.0658 22.0594 21.1246 22.0594C21.1835 22.0594 21.2319 22.11 21.2319 22.1734Z" fill="#080501" stroke="#E6DECF" stroke-width="0.0151769"/>
<path d="M21.1675 22.5902C21.1675 22.6536 21.119 22.7042 21.0602 22.7042C21.0013 22.7042 20.9529 22.6536 20.9529 22.5902C20.9529 22.5269 21.0013 22.4762 21.0602 22.4762C21.119 22.4762 21.1675 22.5269 21.1675 22.5902Z" fill="#080501" stroke="#E6DECF" stroke-width="0.0151769"/>
<path d="M21.5601 21.7913C21.5601 21.8547 21.5116 21.9053 21.4528 21.9053C21.3939 21.9053 21.3455 21.8547 21.3455 21.7913C21.3455 21.7279 21.3939 21.6773 21.4528 21.6773C21.5116 21.6773 21.5601 21.7279 21.5601 21.7913Z" fill="#080501" stroke="#E6DECF" stroke-width="0.0151769"/>
<path d="M21.7573 21.305C21.7573 21.3683 21.7089 21.419 21.65 21.419C21.5912 21.419 21.5427 21.3683 21.5427 21.305C21.5427 21.2416 21.5912 21.191 21.65 21.191C21.7089 21.191 21.7573 21.2416 21.7573 21.305Z" fill="#080501" stroke="#E6DECF" stroke-width="0.0151769"/>
<path d="M21.7573 20.7491C21.7573 20.8124 21.7089 20.8631 21.65 20.8631C21.5912 20.8631 21.5427 20.8124 21.5427 20.7491C21.5427 20.6857 21.5912 20.6351 21.65 20.6351C21.7089 20.6351 21.7573 20.6857 21.7573 20.7491Z" fill="#080501" stroke="#E6DECF" stroke-width="0.0151769"/>
<path d="M21.6265 20.2975C21.6265 20.3609 21.578 20.4115 21.5192 20.4115C21.4603 20.4115 21.4119 20.3609 21.4119 20.2975C21.4119 20.2341 21.4603 20.1835 21.5192 20.1835C21.578 20.1835 21.6265 20.2341 21.6265 20.2975Z" fill="#080501" stroke="#E6DECF" stroke-width="0.0151769"/>
<path d="M21.2319 19.8806C21.2319 19.944 21.1835 19.9946 21.1246 19.9946C21.0658 19.9946 21.0174 19.944 21.0174 19.8806C21.0174 19.8173 21.0658 19.7667 21.1246 19.7667C21.1835 19.7667 21.2319 19.8173 21.2319 19.8806Z" fill="#080501" stroke="#E6DECF" stroke-width="0.0151769"/>
<path d="M20.7397 19.6027C20.7397 19.6661 20.6913 19.7167 20.6325 19.7167C20.5736 19.7167 20.5252 19.6661 20.5252 19.6027C20.5252 19.5393 20.5736 19.4887 20.6325 19.4887C20.6913 19.4887 20.7397 19.5393 20.7397 19.6027Z" fill="#080501" stroke="#E6DECF" stroke-width="0.0151769"/>
<path d="M20.1831 19.4986C20.1831 19.5619 20.1347 19.6126 20.0758 19.6126C20.017 19.6126 19.9685 19.5619 19.9685 19.4986C19.9685 19.4352 20.017 19.3846 20.0758 19.3846C20.1347 19.3846 20.1831 19.4352 20.1831 19.4986Z" fill="#080501" stroke="#E6DECF" stroke-width="0.0151769"/>
<path d="M19.6245 19.6027C19.6245 19.6661 19.5761 19.7167 19.5172 19.7167C19.4584 19.7167 19.4099 19.6661 19.4099 19.6027C19.4099 19.5393 19.4584 19.4887 19.5172 19.4887C19.5761 19.4887 19.6245 19.5393 19.6245 19.6027Z" fill="#080501" stroke="#E6DECF" stroke-width="0.0151769"/>
<path d="M19.1636 19.8459C19.1636 19.9092 19.1151 19.9598 19.0563 19.9598C18.9974 19.9598 18.949 19.9092 18.949 19.8459C18.949 19.7825 18.9974 19.7319 19.0563 19.7319C19.1151 19.7319 19.1636 19.7825 19.1636 19.8459Z" fill="#080501" stroke="#E6DECF" stroke-width="0.0151769"/>
<path d="M18.8042 20.2628C18.8042 20.3262 18.7558 20.3768 18.6969 20.3768C18.6381 20.3768 18.5896 20.3262 18.5896 20.2628C18.5896 20.1995 18.6381 20.1489 18.6969 20.1489C18.7558 20.1489 18.8042 20.1995 18.8042 20.2628Z" fill="#080501" stroke="#E6DECF" stroke-width="0.0151769"/>
<path d="M18.6069 20.7491C18.6069 20.8124 18.5585 20.863 18.4996 20.863C18.4408 20.863 18.3924 20.8124 18.3924 20.7491C18.3924 20.6857 18.4408 20.6351 18.4996 20.6351C18.5585 20.6351 18.6069 20.6857 18.6069 20.7491Z" fill="#080501" stroke="#E6DECF" stroke-width="0.0151769"/>
<path d="M18.5737 21.2355C18.5737 21.2988 18.5253 21.3495 18.4664 21.3495C18.4076 21.3495 18.3592 21.2988 18.3592 21.2355C18.3592 21.1721 18.4076 21.1215 18.4664 21.1215C18.5253 21.1215 18.5737 21.1721 18.5737 21.2355Z" fill="#080501" stroke="#E6DECF" stroke-width="0.0151769"/>
<path d="M18.771 21.7565C18.771 21.8199 18.7226 21.8705 18.6637 21.8705C18.6049 21.8705 18.5564 21.8199 18.5564 21.7565C18.5564 21.6931 18.6049 21.6425 18.6637 21.6425C18.7226 21.6425 18.771 21.6931 18.771 21.7565Z" fill="#080501" stroke="#E6DECF" stroke-width="0.0151769"/>
<path d="M19.1323 22.208C19.1323 22.2714 19.0839 22.322 19.025 22.322C18.9662 22.322 18.9177 22.2714 18.9177 22.208C18.9177 22.1447 18.9662 22.094 19.025 22.094C19.0839 22.094 19.1323 22.1447 19.1323 22.208Z" fill="#080501" stroke="#E6DECF" stroke-width="0.0151769"/>
<path d="M19.23 22.5902C19.23 22.6536 19.1815 22.7042 19.1227 22.7042C19.0638 22.7042 19.0154 22.6536 19.0154 22.5902C19.0154 22.5269 19.0638 22.4762 19.1227 22.4762C19.1815 22.4762 19.23 22.5269 19.23 22.5902Z" fill="#080501" stroke="#E6DECF" stroke-width="0.0151769"/>
<path d="M20.1835 23.1287C20.1835 23.1824 20.1424 23.2253 20.0926 23.2253C20.0428 23.2253 20.0017 23.1824 20.0017 23.1287C20.0017 23.0749 20.0428 23.032 20.0926 23.032C20.1424 23.032 20.1835 23.0749 20.1835 23.1287Z" fill="#080501" stroke="#E6DECF" stroke-width="0.0151769"/>
<path d="M20.9374 22.955C20.9374 23.0087 20.8963 23.0516 20.8465 23.0516C20.7967 23.0516 20.7556 23.0087 20.7556 22.955C20.7556 22.9012 20.7967 22.8583 20.8465 22.8583C20.8963 22.8583 20.9374 22.9012 20.9374 22.955Z" fill="#080501" stroke="#E6DECF" stroke-width="0.0151769"/>
<path d="M21.5936 22.6075C21.5936 22.6613 21.5525 22.7042 21.5028 22.7042C21.453 22.7042 21.4119 22.6613 21.4119 22.6075C21.4119 22.5538 21.453 22.5109 21.5028 22.5109C21.5525 22.5109 21.5936 22.5538 21.5936 22.6075Z" fill="#080501" stroke="#E6DECF" stroke-width="0.0151769"/>
<path d="M21.66 22.1907C21.66 22.2444 21.619 22.2873 21.5692 22.2873C21.5194 22.2873 21.4783 22.2444 21.4783 22.1907C21.4783 22.1369 21.5194 22.094 21.5692 22.094C21.619 22.094 21.66 22.1369 21.66 22.1907Z" fill="#080501" stroke="#E6DECF" stroke-width="0.0151769"/>
<path d="M22.0878 22.0864C22.0878 22.1402 22.0467 22.183 21.9969 22.183C21.9471 22.183 21.906 22.1402 21.906 22.0864C21.906 22.0326 21.9471 21.9898 21.9969 21.9898C22.0467 21.9898 22.0878 22.0326 22.0878 22.0864Z" fill="#080501" stroke="#E6DECF" stroke-width="0.0151769"/>
<path d="M21.9882 21.6349C21.9882 21.6887 21.9471 21.7315 21.8973 21.7315C21.8475 21.7315 21.8064 21.6887 21.8064 21.6349C21.8064 21.5811 21.8475 21.5383 21.8973 21.5383C21.9471 21.5383 21.9882 21.5811 21.9882 21.6349Z" fill="#080501" stroke="#E6DECF" stroke-width="0.0151769"/>
<path d="M22.3495 21.3569C22.3495 21.4107 22.3084 21.4536 22.2586 21.4536C22.2088 21.4536 22.1677 21.4107 22.1677 21.3569C22.1677 21.3032 22.2088 21.2603 22.2586 21.2603C22.3084 21.2603 22.3495 21.3032 22.3495 21.3569Z" fill="#080501" stroke="#E6DECF" stroke-width="0.0151769"/>
<path d="M22.0878 21.0443C22.0878 21.0981 22.0467 21.1409 21.9969 21.1409C21.9471 21.1409 21.906 21.0981 21.906 21.0443C21.906 20.9905 21.9471 20.9477 21.9969 20.9477C22.0467 20.9477 22.0878 20.9905 22.0878 21.0443Z" fill="#080501" stroke="#E6DECF" stroke-width="0.0151769"/>
<path d="M22.3495 20.6623C22.3495 20.7161 22.3084 20.759 22.2586 20.759C22.2088 20.759 22.1677 20.7161 22.1677 20.6623C22.1677 20.6086 22.2088 20.5657 22.2586 20.5657C22.3084 20.5657 22.3495 20.6086 22.3495 20.6623Z" fill="#080501" stroke="#E6DECF" stroke-width="0.0151769"/>
<path d="M21.9882 20.4191C21.9882 20.4728 21.9471 20.5157 21.8973 20.5157C21.8475 20.5157 21.8064 20.4728 21.8064 20.4191C21.8064 20.3653 21.8475 20.3224 21.8973 20.3224C21.9471 20.3224 21.9882 20.3653 21.9882 20.4191Z" fill="#080501" stroke="#E6DECF" stroke-width="0.0151769"/>
<path d="M22.119 20.0021C22.119 20.0558 22.0779 20.0987 22.0282 20.0987C21.9784 20.0987 21.9373 20.0558 21.9373 20.0021C21.9373 19.9483 21.9784 19.9054 22.0282 19.9054C22.0779 19.9054 22.119 19.9483 22.119 20.0021Z" fill="#080501" stroke="#E6DECF" stroke-width="0.0151769"/>
<path d="M21.66 19.8633C21.66 19.9171 21.619 19.9599 21.5692 19.9599C21.5194 19.9599 21.4783 19.9171 21.4783 19.8633C21.4783 19.8095 21.5194 19.7667 21.5692 19.7667C21.619 19.7667 21.66 19.8095 21.66 19.8633Z" fill="#080501" stroke="#E6DECF" stroke-width="0.0151769"/>
<path d="M21.6268 19.4464C21.6268 19.5002 21.5858 19.543 21.536 19.543C21.4862 19.543 21.4451 19.5002 21.4451 19.4464C21.4451 19.3926 21.4862 19.3498 21.536 19.3498C21.5858 19.3498 21.6268 19.3926 21.6268 19.4464Z" fill="#080501" stroke="#E6DECF" stroke-width="0.0151769"/>
<path d="M21.1347 19.4464C21.1347 19.5002 21.0936 19.543 21.0438 19.543C20.994 19.543 20.9529 19.5002 20.9529 19.4464C20.9529 19.3926 20.994 19.3498 21.0438 19.3498C21.0936 19.3498 21.1347 19.3926 21.1347 19.4464Z" fill="#080501" stroke="#E6DECF" stroke-width="0.0151769"/>
<path d="M20.9374 19.0295C20.9374 19.0833 20.8963 19.1262 20.8465 19.1262C20.7967 19.1262 20.7556 19.0833 20.7556 19.0295C20.7556 18.9758 20.7967 18.9329 20.8465 18.9329C20.8963 18.9329 20.9374 18.9758 20.9374 19.0295Z" fill="#080501" stroke="#E6DECF" stroke-width="0.0151769"/>
<path d="M20.5116 19.238C20.5116 19.2918 20.4705 19.3347 20.4207 19.3347C20.3709 19.3347 20.3299 19.2918 20.3299 19.238C20.3299 19.1843 20.3709 19.1414 20.4207 19.1414C20.4705 19.1414 20.5116 19.1843 20.5116 19.238Z" fill="#080501" stroke="#E6DECF" stroke-width="0.0151769"/>
<path d="M20.1503 18.9253C20.1503 18.9791 20.1092 19.0219 20.0594 19.0219C20.0096 19.0219 19.9685 18.9791 19.9685 18.9253C19.9685 18.8715 20.0096 18.8287 20.0594 18.8287C20.1092 18.8287 20.1503 18.8715 20.1503 18.9253Z" fill="#080501" stroke="#E6DECF" stroke-width="0.0151769"/>
<path d="M19.8222 19.238C19.8222 19.2918 19.7811 19.3346 19.7313 19.3346C19.6815 19.3346 19.6404 19.2918 19.6404 19.238C19.6404 19.1842 19.6815 19.1414 19.7313 19.1414C19.7811 19.1414 19.8222 19.1842 19.8222 19.238Z" fill="#080501" stroke="#E6DECF" stroke-width="0.0151769"/>
<path d="M19.3964 19.0642C19.3964 19.118 19.3553 19.1608 19.3055 19.1608C19.2557 19.1608 19.2146 19.118 19.2146 19.0642C19.2146 19.0104 19.2557 18.9676 19.3055 18.9676C19.3553 18.9676 19.3964 19.0104 19.3964 19.0642Z" fill="#080501" stroke="#E6DECF" stroke-width="0.0151769"/>
<path d="M19.2304 19.4812C19.2304 19.535 19.1893 19.5778 19.1395 19.5778C19.0897 19.5778 19.0486 19.535 19.0486 19.4812C19.0486 19.4274 19.0897 19.3846 19.1395 19.3846C19.1893 19.3846 19.2304 19.4274 19.2304 19.4812Z" fill="#080501" stroke="#E6DECF" stroke-width="0.0151769"/>
<path d="M18.7714 19.4116C18.7714 19.4654 18.7303 19.5082 18.6805 19.5082C18.6307 19.5082 18.5896 19.4654 18.5896 19.4116C18.5896 19.3578 18.6307 19.315 18.6805 19.315C18.7303 19.315 18.7714 19.3578 18.7714 19.4116Z" fill="#080501" stroke="#E6DECF" stroke-width="0.0151769"/>
<path d="M18.7069 19.8285C18.7069 19.8823 18.6658 19.9251 18.616 19.9251C18.5663 19.9251 18.5252 19.8823 18.5252 19.8285C18.5252 19.7747 18.5663 19.7319 18.616 19.7319C18.6658 19.7319 18.7069 19.7747 18.7069 19.8285Z" fill="#080501" stroke="#E6DECF" stroke-width="0.0151769"/>
<path d="M18.2792 19.9674C18.2792 20.0212 18.2381 20.064 18.1883 20.064C18.1385 20.064 18.0974 20.0212 18.0974 19.9674C18.0974 19.9136 18.1385 19.8708 18.1883 19.8708C18.2381 19.8708 18.2792 19.9136 18.2792 19.9674Z" fill="#080501" stroke="#E6DECF" stroke-width="0.0151769"/>
<path d="M18.3456 20.3844C18.3456 20.4382 18.3045 20.481 18.2547 20.481C18.2049 20.481 18.1638 20.4382 18.1638 20.3844C18.1638 20.3306 18.2049 20.2878 18.2547 20.2878C18.3045 20.2878 18.3456 20.3306 18.3456 20.3844Z" fill="#080501" stroke="#E6DECF" stroke-width="0.0151769"/>
<path d="M17.9843 20.6275C17.9843 20.6813 17.9432 20.7241 17.8934 20.7241C17.8436 20.7241 17.8025 20.6813 17.8025 20.6275C17.8025 20.5737 17.8436 20.5309 17.8934 20.5309C17.9432 20.5309 17.9843 20.5737 17.9843 20.6275Z" fill="#080501" stroke="#E6DECF" stroke-width="0.0151769"/>
<path d="M18.246 20.9748C18.246 21.0286 18.2049 21.0715 18.1551 21.0715C18.1053 21.0715 18.0642 21.0286 18.0642 20.9748C18.0642 20.9211 18.1053 20.8782 18.1551 20.8782C18.2049 20.8782 18.246 20.9211 18.246 20.9748Z" fill="#080501" stroke="#E6DECF" stroke-width="0.0151769"/>
<path d="M17.9843 21.3569C17.9843 21.4107 17.9432 21.4535 17.8934 21.4535C17.8436 21.4535 17.8025 21.4107 17.8025 21.3569C17.8025 21.3031 17.8436 21.2603 17.8934 21.2603C17.9432 21.2603 17.9843 21.3031 17.9843 21.3569Z" fill="#080501" stroke="#E6DECF" stroke-width="0.0151769"/>
<path d="M18.3124 21.6349C18.3124 21.6887 18.2713 21.7315 18.2215 21.7315C18.1717 21.7315 18.1306 21.6887 18.1306 21.6349C18.1306 21.5811 18.1717 21.5383 18.2215 21.5383C18.2713 21.5383 18.3124 21.5811 18.3124 21.6349Z" fill="#080501" stroke="#E6DECF" stroke-width="0.0151769"/>
<path d="M18.2147 22.0518C18.2147 22.1055 18.1736 22.1484 18.1239 22.1484C18.0741 22.1484 18.033 22.1055 18.033 22.0518C18.033 21.998 18.0741 21.9551 18.1239 21.9551C18.1736 21.9551 18.2147 21.998 18.2147 22.0518Z" fill="#080501" stroke="#E6DECF" stroke-width="0.0151769"/>
<path d="M18.7069 22.1907C18.7069 22.2444 18.6658 22.2873 18.616 22.2873C18.5663 22.2873 18.5252 22.2444 18.5252 22.1907C18.5252 22.1369 18.5663 22.094 18.616 22.094C18.6658 22.094 18.7069 22.1369 18.7069 22.1907Z" fill="#080501" stroke="#E6DECF" stroke-width="0.0151769"/>
<path d="M18.7401 22.6422C18.7401 22.696 18.699 22.7388 18.6492 22.7388C18.5995 22.7388 18.5584 22.696 18.5584 22.6422C18.5584 22.5884 18.5995 22.5456 18.6492 22.5456C18.699 22.5456 18.7401 22.5884 18.7401 22.6422Z" fill="#080501" stroke="#E6DECF" stroke-width="0.0151769"/>
<path d="M19.4276 22.9896C19.4276 23.0434 19.3865 23.0862 19.3367 23.0862C19.287 23.0862 19.2459 23.0434 19.2459 22.9896C19.2459 22.9358 19.287 22.893 19.3367 22.893C19.3865 22.893 19.4276 22.9358 19.4276 22.9896Z" fill="#080501" stroke="#E6DECF" stroke-width="0.0151769"/>
<path d="M19.7561 23.3197C19.7561 23.3638 19.7224 23.3989 19.6817 23.3989C19.6409 23.3989 19.6072 23.3638 19.6072 23.3197C19.6072 23.2755 19.6409 23.2404 19.6817 23.2404C19.7224 23.2404 19.7561 23.2755 19.7561 23.3197Z" fill="#080501" stroke="#E6DECF" stroke-width="0.0151769"/>
<path d="M20.6096 23.3197C20.6096 23.3638 20.5759 23.3989 20.5352 23.3989C20.4945 23.3989 20.4607 23.3638 20.4607 23.3197C20.4607 23.2755 20.4945 23.2404 20.5352 23.2404C20.5759 23.2404 20.6096 23.2755 20.6096 23.3197Z" fill="#080501" stroke="#E6DECF" stroke-width="0.0151769"/>
<path d="M21.43 23.0418C21.43 23.086 21.3962 23.1211 21.3555 23.1211C21.3148 23.1211 21.281 23.086 21.281 23.0418C21.281 22.9976 21.3148 22.9626 21.3555 22.9626C21.3962 22.9626 21.43 22.9976 21.43 23.0418Z" fill="#080501" stroke="#E6DECF" stroke-width="0.0151769"/>
<path d="M22.0862 22.5207C22.0862 22.5649 22.0525 22.6 22.0117 22.6C21.971 22.6 21.9373 22.5649 21.9373 22.5207C21.9373 22.4765 21.971 22.4415 22.0117 22.4415C22.0525 22.4415 22.0862 22.4765 22.0862 22.5207Z" fill="#080501" stroke="#E6DECF" stroke-width="0.0151769"/>
<path d="M22.512 21.826C22.512 21.8702 22.4782 21.9053 22.4375 21.9053C22.3968 21.9053 22.3631 21.8702 22.3631 21.826C22.3631 21.7818 22.3968 21.7468 22.4375 21.7468C22.4782 21.7468 22.512 21.7818 22.512 21.826Z" fill="#080501" stroke="#E6DECF" stroke-width="0.0151769"/>
<path d="M22.5784 21.0271C22.5784 21.0712 22.5447 21.1063 22.5039 21.1063C22.4632 21.1063 22.4295 21.0712 22.4295 21.0271C22.4295 20.9829 22.4632 20.9478 22.5039 20.9478C22.5447 20.9478 22.5784 20.9829 22.5784 21.0271Z" fill="#080501" stroke="#E6DECF" stroke-width="0.0151769"/>
<path d="M22.512 20.2628C22.512 20.307 22.4782 20.342 22.4375 20.342C22.3968 20.342 22.3631 20.307 22.3631 20.2628C22.3631 20.2186 22.3968 20.1835 22.4375 20.1835C22.4782 20.1835 22.512 20.2186 22.512 20.2628Z" fill="#080501" stroke="#E6DECF" stroke-width="0.0151769"/>
<path d="M22.0862 19.5334C22.0862 19.5776 22.0525 19.6127 22.0117 19.6127C21.971 19.6127 21.9373 19.5776 21.9373 19.5334C21.9373 19.4892 21.971 19.4542 22.0117 19.4542C22.0525 19.4542 22.0862 19.4892 22.0862 19.5334Z" fill="#080501" stroke="#E6DECF" stroke-width="0.0151769"/>
<path d="M21.3968 19.0123C21.3968 19.0565 21.363 19.0915 21.3223 19.0915C21.2816 19.0915 21.2478 19.0565 21.2478 19.0123C21.2478 18.9681 21.2816 18.933 21.3223 18.933C21.363 18.933 21.3968 18.9681 21.3968 19.0123Z" fill="#080501" stroke="#E6DECF" stroke-width="0.0151769"/>
<path d="M20.6096 18.7343C20.6096 18.7785 20.5759 18.8136 20.5352 18.8136C20.4945 18.8136 20.4607 18.7785 20.4607 18.7343C20.4607 18.6902 20.4945 18.6551 20.5352 18.6551C20.5759 18.6551 20.6096 18.6902 20.6096 18.7343Z" fill="#080501" stroke="#E6DECF" stroke-width="0.0151769"/>
<path d="M19.7561 18.7343C19.7561 18.7785 19.7224 18.8136 19.6817 18.8136C19.6409 18.8136 19.6072 18.7785 19.6072 18.7343C19.6072 18.6902 19.6409 18.6551 19.6817 18.6551C19.7224 18.6551 19.7561 18.6902 19.7561 18.7343Z" fill="#080501" stroke="#E6DECF" stroke-width="0.0151769"/>
<path d="M18.9339 19.047C18.9339 19.0911 18.9001 19.1262 18.8594 19.1262C18.8187 19.1262 18.7849 19.0911 18.7849 19.047C18.7849 19.0028 18.8187 18.9677 18.8594 18.9677C18.9001 18.9677 18.9339 19.0028 18.9339 19.047Z" fill="#080501" stroke="#E6DECF" stroke-width="0.0151769"/>
<path d="M18.2776 19.5334C18.2776 19.5776 18.2439 19.6127 18.2031 19.6127C18.1624 19.6127 18.1287 19.5776 18.1287 19.5334C18.1287 19.4892 18.1624 19.4542 18.2031 19.4542C18.2439 19.4542 18.2776 19.4892 18.2776 19.5334Z" fill="#080501" stroke="#E6DECF" stroke-width="0.0151769"/>
<path d="M17.8518 20.1933C17.8518 20.2375 17.8181 20.2726 17.7774 20.2726C17.7366 20.2726 17.7029 20.2375 17.7029 20.1933C17.7029 20.1491 17.7366 20.1141 17.7774 20.1141C17.8181 20.1141 17.8518 20.1491 17.8518 20.1933Z" fill="#080501" stroke="#E6DECF" stroke-width="0.0151769"/>
<path d="M17.6878 20.9923C17.6878 21.0365 17.654 21.0716 17.6133 21.0716C17.5726 21.0716 17.5388 21.0365 17.5388 20.9923C17.5388 20.9481 17.5726 20.9131 17.6133 20.9131C17.654 20.9131 17.6878 20.9481 17.6878 20.9923Z" fill="#080501" stroke="#E6DECF" stroke-width="0.0151769"/>
<path d="M17.7874 21.826C17.7874 21.8702 17.7536 21.9053 17.7129 21.9053C17.6722 21.9053 17.6384 21.8702 17.6384 21.826C17.6384 21.7818 17.6722 21.7468 17.7129 21.7468C17.7536 21.7468 17.7874 21.7818 17.7874 21.826Z" fill="#080501" stroke="#E6DECF" stroke-width="0.0151769"/>
<path d="M18.2132 22.5207C18.2132 22.5649 18.1794 22.6 18.1387 22.6C18.098 22.6 18.0642 22.5649 18.0642 22.5207C18.0642 22.4765 18.098 22.4415 18.1387 22.4415C18.1794 22.4415 18.2132 22.4765 18.2132 22.5207Z" fill="#080501" stroke="#E6DECF" stroke-width="0.0151769"/>
<path d="M18.9339 23.0418C18.9339 23.086 18.9001 23.1211 18.8594 23.1211C18.8187 23.1211 18.7849 23.086 18.7849 23.0418C18.7849 22.9976 18.8187 22.9626 18.8594 22.9626C18.9001 22.9626 18.9339 22.9976 18.9339 23.0418Z" fill="#080501" stroke="#E6DECF" stroke-width="0.0151769"/>
<ellipse cx="28.4423" cy="28.3272" rx="0.909096" ry="0.962182" fill="#E6DECF"/>
<ellipse cx="27.9228" cy="31.6262" rx="0.909096" ry="0.962182" fill="#E6DECF"/>
<ellipse cx="13.1278" cy="31.6415" rx="0.909096" ry="0.962182" fill="#E6DECF"/>
<ellipse cx="31.04" cy="25.3032" rx="0.909096" ry="0.962182" fill="#E6DECF"/>
<ellipse cx="32.5985" cy="21.4546" rx="0.909096" ry="0.962182" fill="#E6DECF"/>
<ellipse cx="32.5985" cy="17.0561" rx="0.909096" ry="0.962182" fill="#E6DECF"/>
<ellipse cx="31.5595" cy="13.4821" rx="0.909096" ry="0.962182" fill="#E6DECF"/>
<ellipse cx="28.4423" cy="10.1833" rx="0.909096" ry="0.962182" fill="#E6DECF"/>
<ellipse cx="24.5458" cy="7.98403" rx="0.909096" ry="0.962182" fill="#E6DECF"/>
<ellipse cx="20.1318" cy="7.1592" rx="0.909096" ry="0.962182" fill="#E6DECF"/>
<ellipse cx="15.7157" cy="7.98403" rx="0.909096" ry="0.962182" fill="#E6DECF"/>
<ellipse cx="12.079" cy="9.90835" rx="0.909096" ry="0.962182" fill="#E6DECF"/>
<ellipse cx="9.2216" cy="13.2073" rx="0.909096" ry="0.962182" fill="#E6DECF"/>
<ellipse cx="7.663" cy="17.0561" rx="0.909096" ry="0.962182" fill="#E6DECF"/>
<ellipse cx="7.40324" cy="20.9046" rx="0.909096" ry="0.962182" fill="#E6DECF"/>
<ellipse cx="8.96183" cy="25.0285" rx="0.909096" ry="0.962182" fill="#E6DECF"/>
<ellipse cx="11.8193" cy="28.6021" rx="0.909096" ry="0.962182" fill="#E6DECF"/>
<ellipse cx="26.2343" cy="34.5125" rx="0.779225" ry="0.824727" fill="#E6DECF"/>
<ellipse cx="14.162" cy="34.4129" rx="0.779225" ry="0.824727" fill="#E6DECF"/>
<ellipse cx="31.4296" cy="31.7632" rx="0.779225" ry="0.824727" fill="#E6DECF"/>
<ellipse cx="31.9472" cy="28.4645" rx="0.779225" ry="0.824727" fill="#E6DECF"/>
<ellipse cx="35.3261" cy="27.6397" rx="0.779225" ry="0.824727" fill="#E6DECF"/>
<ellipse cx="34.5448" cy="24.0659" rx="0.779225" ry="0.824727" fill="#E6DECF"/>
<ellipse cx="37.4042" cy="21.8667" rx="0.779225" ry="0.824727" fill="#E6DECF"/>
<ellipse cx="35.3261" cy="19.3925" rx="0.779225" ry="0.824727" fill="#E6DECF"/>
<ellipse cx="37.4042" cy="16.3684" rx="0.779225" ry="0.824727" fill="#E6DECF"/>
<ellipse cx="34.5448" cy="14.4441" rx="0.779225" ry="0.824727" fill="#E6DECF"/>
<ellipse cx="35.5839" cy="11.1452" rx="0.779225" ry="0.824727" fill="#E6DECF"/>
<ellipse cx="31.9472" cy="10.0456" rx="0.779225" ry="0.824727" fill="#E6DECF"/>
<ellipse cx="31.6894" cy="6.74672" rx="0.779225" ry="0.824727" fill="#E6DECF"/>
<ellipse cx="27.7929" cy="6.74672" rx="0.779225" ry="0.824727" fill="#E6DECF"/>
<ellipse cx="26.2343" cy="3.44776" rx="0.779225" ry="0.824727" fill="#E6DECF"/>
<ellipse cx="22.8573" cy="5.09716" rx="0.779225" ry="0.824727" fill="#E6DECF"/>
<ellipse cx="19.9999" cy="2.62307" rx="0.779225" ry="0.824727" fill="#E6DECF"/>
<ellipse cx="17.4023" cy="5.09719" rx="0.779225" ry="0.824727" fill="#E6DECF"/>
<ellipse cx="14.0253" cy="3.72255" rx="0.779225" ry="0.824727" fill="#E6DECF"/>
<ellipse cx="12.7265" cy="7.02163" rx="0.779225" ry="0.824727" fill="#E6DECF"/>
<ellipse cx="9.09173" cy="6.4717" rx="0.779225" ry="0.824727" fill="#E6DECF"/>
<ellipse cx="8.57219" cy="9.77077" rx="0.779225" ry="0.824727" fill="#E6DECF"/>
<ellipse cx="5.19524" cy="10.8703" rx="0.779225" ry="0.824727" fill="#E6DECF"/>
<ellipse cx="5.71477" cy="14.1692" rx="0.779225" ry="0.824727" fill="#E6DECF"/>
<ellipse cx="2.85735" cy="16.0935" rx="0.779225" ry="0.824727" fill="#E6DECF"/>
<ellipse cx="4.93548" cy="18.8427" rx="0.779225" ry="0.824727" fill="#E6DECF"/>
<ellipse cx="2.85735" cy="21.8667" rx="0.779225" ry="0.824727" fill="#E6DECF"/>
<ellipse cx="5.45501" cy="24.0659" rx="0.779225" ry="0.824727" fill="#E6DECF"/>
<ellipse cx="4.67571" cy="27.365" rx="0.779225" ry="0.824727" fill="#E6DECF"/>
<ellipse cx="8.57219" cy="28.4645" rx="0.779225" ry="0.824727" fill="#E6DECF"/>
<ellipse cx="8.83196" cy="32.0383" rx="0.779225" ry="0.824727" fill="#E6DECF"/>
<ellipse cx="35.454" cy="31.0763" rx="0.649354" ry="0.687273" fill="#E6DECF"/>
<ellipse cx="38.831" cy="25.5779" rx="0.649354" ry="0.687273" fill="#E6DECF"/>
<ellipse cx="39.3505" cy="19.2551" rx="0.649354" ry="0.687273" fill="#E6DECF"/>
<ellipse cx="38.831" cy="13.2072" rx="0.649354" ry="0.687273" fill="#E6DECF"/>
<ellipse cx="35.454" cy="7.43398" rx="0.649354" ry="0.687273" fill="#E6DECF"/>
<ellipse cx="30.0009" cy="3.31056" rx="0.649354" ry="0.687273" fill="#E6DECF"/>
<ellipse cx="23.7665" cy="1.1111" rx="0.649354" ry="0.687273" fill="#E6DECF"/>
<ellipse cx="17.0126" cy="1.1111" rx="0.649354" ry="0.687273" fill="#E6DECF"/>
<ellipse cx="10.5185" cy="3.58534" rx="0.649354" ry="0.687273" fill="#E6DECF"/>
<ellipse cx="5.32514" cy="7.43398" rx="0.649354" ry="0.687273" fill="#E6DECF"/>
<ellipse cx="1.94818" cy="12.6572" rx="0.649354" ry="0.687273" fill="#E6DECF"/>
<ellipse cx="0.649354" cy="18.9802" rx="0.649354" ry="0.687273" fill="#E6DECF"/>
<ellipse cx="1.42865" cy="25.5779" rx="0.649354" ry="0.687273" fill="#E6DECF"/>
<ellipse cx="4.8056" cy="31.0763" rx="0.649354" ry="0.687273" fill="#E6DECF"/>
</svg>
