<svg width="65" height="27" viewBox="0 0 65 27" fill="none" xmlns="http://www.w3.org/2000/svg">
<g clip-path="url(#clip0_412_416)">
<path d="M0 9.3291H0.978013C1.59153 9.3291 1.88746 9.53842 1.89468 10.0509C1.90785 10.2108 1.86071 10.3698 1.76253 10.4967C1.66436 10.6236 1.52225 10.7092 1.36417 10.7366C1.43266 10.7396 1.49946 10.7588 1.55906 10.7927C1.61866 10.8266 1.66937 10.8742 1.70701 10.9315C1.77698 11.1282 1.81002 11.3362 1.80445 11.545C1.81612 11.7678 1.8549 11.9884 1.91994 12.2018H1.48326C1.44356 12.0176 1.41822 11.8306 1.40747 11.6424C1.4101 11.4318 1.37339 11.2225 1.29921 11.0253C1.23785 10.9387 1.10433 10.8954 0.902226 10.8954H0.447504V12.1982H0V9.3291ZM0.79035 10.585C1.20177 10.585 1.42913 10.502 1.45078 10.0942C1.45078 9.79104 1.26312 9.6539 0.873355 9.6539H0.447504V10.5886L0.79035 10.585Z" fill="#080501"/>
<path d="M2.46777 11.1262V9.32178H2.88641V11.0974C2.88641 11.6062 3.0452 11.9202 3.51436 11.9202C3.98351 11.9202 4.14231 11.6062 4.14231 11.101V9.32899H4.56816V11.1334C4.56816 11.8552 4.25057 12.2378 3.50714 12.2378C2.7637 12.2378 2.46777 11.8661 2.46777 11.1262Z" fill="#080501"/>
<path d="M5.08398 11.4584L5.51344 11.397C5.50245 11.5267 5.54342 11.6555 5.62734 11.755C5.71126 11.8545 5.83126 11.9165 5.96095 11.9276H6.04756C6.33988 11.9276 6.59251 11.7796 6.59251 11.462C6.59251 11.1444 6.30379 11.0542 5.9826 10.9062C5.50984 10.7041 5.13812 10.5453 5.13812 10.0581C5.13812 9.57094 5.58201 9.28223 6.09448 9.28223C6.60694 9.28223 6.96061 9.47711 6.98227 10.004L6.55281 10.0654C6.5601 10.0012 6.55257 9.9362 6.5308 9.87539C6.50903 9.81458 6.4736 9.75958 6.42724 9.71461C6.38088 9.66964 6.32482 9.63591 6.26338 9.61601C6.20194 9.59611 6.13675 9.59057 6.07282 9.59981C6.01107 9.59169 5.9483 9.59666 5.8886 9.61439C5.82889 9.63211 5.77358 9.66221 5.72627 9.70272C5.67896 9.74322 5.6407 9.79323 5.61398 9.84949C5.58726 9.90575 5.57268 9.967 5.57119 10.0293C5.57119 10.3505 5.8996 10.4587 6.20635 10.585C6.67551 10.7835 7.02918 10.9459 7.02918 11.4331C7.02918 11.9961 6.59251 12.2524 6.04034 12.2524C5.48818 12.2524 5.12368 12.0142 5.08398 11.4584Z" fill="#080501"/>
<path d="M7.46631 11.4584L7.89577 11.397C7.88477 11.5267 7.92574 11.6555 8.00966 11.755C8.09358 11.8545 8.21359 11.9165 8.34327 11.9276H8.42989C8.72221 11.9276 8.97483 11.7796 8.97483 11.462C8.97483 11.1444 8.68612 11.0542 8.36493 10.9062C7.89216 10.7041 7.52044 10.5453 7.52044 10.0581C7.52044 9.57094 7.96434 9.28223 8.4768 9.28223C8.98927 9.28223 9.34294 9.47711 9.36459 10.004L8.93513 10.0654C8.94242 10.0012 8.93489 9.9362 8.91312 9.87539C8.89136 9.81458 8.85593 9.75958 8.80957 9.71461C8.76321 9.66964 8.70715 9.63591 8.6457 9.61601C8.58426 9.59611 8.51907 9.59057 8.45515 9.59981C8.39319 9.58954 8.32975 9.59253 8.26903 9.6086C8.20831 9.62466 8.15169 9.65343 8.10291 9.69299C8.05413 9.73256 8.0143 9.78203 7.98606 9.83813C7.95782 9.89424 7.9418 9.95569 7.93908 10.0184C7.93908 10.3396 8.26749 10.4479 8.57424 10.5742C9.0434 10.7727 9.39707 10.9351 9.39707 11.4223C9.39707 11.9853 8.9604 12.2415 8.40823 12.2415C7.85607 12.2415 7.50601 12.0142 7.46631 11.4584Z" fill="#080501"/>
<path d="M9.97314 9.3291H10.399V12.2162H9.97314V9.3291Z" fill="#080501"/>
<path d="M11.8629 9.3291H12.3537L13.4003 12.2162H12.9384L12.693 11.4944H11.502L11.2566 12.2162H10.8271L11.8629 9.3291ZM12.5847 11.1624L12.0903 9.68638C12.0903 9.68638 11.65 11.065 11.6103 11.1624H12.5847Z" fill="#080501"/>
<path d="M0 0.552246H1.2559V1.53026H0V0.552246ZM0 2.42166H1.24507V6.78483H0V2.42166Z" fill="#080501"/>
<path d="M2.33776 3.32371C2.33776 3.06387 2.33776 2.71019 2.3125 2.42509H3.53231V3.01334C3.67541 2.79499 3.87262 2.6174 4.10472 2.49787C4.33682 2.37834 4.59591 2.32094 4.85678 2.33126C5.7987 2.33126 6.24982 2.8329 6.24982 3.86504V6.79187H5.03001V4.1718C5.03001 3.57272 4.9867 3.08913 4.35514 3.08913C3.78493 3.08913 3.5684 3.62686 3.5684 4.30894V6.79187H2.33776V3.32371Z" fill="#080501"/>
<path d="M7.57823 5.6514V3.20095H6.85645V2.42143H7.57823V1.63469L8.79082 1.16553V2.42143H9.65696V3.20095H8.79082V5.36629C8.79082 5.84989 8.83413 6.04116 9.31772 6.04116C9.43865 6.03671 9.55919 6.02465 9.67861 6.00507V6.77377C9.4186 6.81669 9.15539 6.83722 8.89187 6.83512C7.93912 6.83873 7.57823 6.59332 7.57823 5.6514Z" fill="#080501"/>
<path d="M10.1548 4.66602C10.1548 3.25493 10.7358 2.33105 12.2335 2.33105C13.7312 2.33105 14.1968 3.24772 14.1823 4.78872H11.3602C11.3962 5.80282 11.6272 6.1998 12.2083 6.1998C12.7099 6.1998 12.93 5.87861 12.9878 5.35171L14.139 5.45637C13.9838 6.4416 13.2909 6.89993 12.201 6.89993C10.7286 6.88189 10.1548 6.0771 10.1548 4.66602ZM11.3782 4.13551H12.9914C12.9914 3.54726 12.8254 3.00953 12.2299 3.00953C11.6344 3.00953 11.4359 3.41373 11.3782 4.13551Z" fill="#080501"/>
<path d="M15.0487 3.48617C15.0487 3.33098 15.0487 2.60199 15.0234 2.4035H16.2108C16.2108 2.43958 16.236 2.99175 16.236 3.07836C16.349 2.84671 16.5268 2.65282 16.7478 2.52022C16.9688 2.38762 17.2235 2.322 17.4811 2.33132C17.5303 2.32706 17.5798 2.32706 17.6291 2.33132V3.37429C17.5279 3.35506 17.4253 3.3442 17.3223 3.34181C16.5789 3.34181 16.2829 3.81819 16.2829 4.57967V6.78832H15.0487C15.0559 6.33359 15.0559 3.68466 15.0487 3.48617Z" fill="#080501"/>
<path d="M18.3711 0.526855H19.6017V6.7847H18.3711V0.526855Z" fill="#080501"/>
<path d="M20.6758 0.552246H21.9317V1.53026H20.6758V0.552246ZM20.6758 2.42166H21.9064V6.78483H20.6938L20.6758 2.42166Z" fill="#080501"/>
<path d="M23.0156 7.23568L24.2354 7.11659C24.2264 7.21159 24.2394 7.30737 24.2732 7.39659C24.307 7.48581 24.3609 7.56609 24.4306 7.63125C24.5003 7.69642 24.584 7.74475 24.6753 7.77252C24.7666 7.80029 24.863 7.80677 24.9572 7.79145C25.4408 7.79145 25.7439 7.54966 25.7439 6.58969V6.04113C25.6083 6.262 25.415 6.44161 25.1847 6.56055C24.9545 6.67949 24.6961 6.73325 24.4375 6.716C23.2935 6.716 22.8351 5.78851 22.8351 4.5687C22.8243 3.2695 23.3007 2.33118 24.4952 2.33118C24.7456 2.3174 24.9949 2.37232 25.2162 2.49C25.4376 2.60767 25.6226 2.78363 25.7511 2.99883V2.42862H26.9529C26.9276 2.84364 26.9276 3.33806 26.9276 3.63039V6.36594C26.9276 7.8095 26.2528 8.50241 24.8922 8.50241C23.7879 8.4988 23.0986 8.15235 23.0156 7.23568ZM25.7259 4.54344C25.7259 3.77474 25.5274 3.05296 24.8597 3.05296C24.1921 3.05296 24.0622 3.73865 24.0622 4.5687C24.0622 5.39875 24.2787 6.01226 24.8597 6.01226C25.596 6.01587 25.7259 5.32296 25.7259 4.54344Z" fill="#080501"/>
<path d="M27.9761 0.526855H29.2067V2.9773C29.3526 2.77105 29.5472 2.60411 29.7733 2.49139C29.9994 2.37867 30.2498 2.32367 30.5023 2.33131C31.4731 2.33131 31.8881 2.85099 31.8881 3.86509V6.79192H30.6755V4.16102C30.6755 3.56194 30.6322 3.07835 30.0007 3.07835C29.3691 3.07835 29.2139 3.64856 29.2139 4.24764V6.77387H27.9761V0.526855Z" fill="#080501"/>
<path d="M33.2003 5.6514V3.20095H32.4785V2.42143H33.2003V1.63469L34.4129 1.16553V2.42143H35.279V3.20095H34.4129V5.36629C34.4129 5.84989 34.4562 6.04116 34.9398 6.04116C35.0607 6.03671 35.1813 6.02465 35.3007 6.00507V6.77377C35.0407 6.81669 34.7775 6.83722 34.5139 6.83512C33.5864 6.83873 33.2003 6.59332 33.2003 5.6514Z" fill="#080501"/>
<path d="M0 15.1431H1.13681V16.0706H0V15.1431ZM0 16.98H1.12598V21.3396H0V16.98Z" fill="#080501"/>
<path d="M2.19763 17.7486C2.19763 17.5068 2.19763 17.1351 2.17236 16.9799H3.29834V17.4888C3.4175 17.2936 3.5877 17.1346 3.79058 17.029C3.99347 16.9234 4.22133 16.8753 4.44958 16.8897C5.23632 16.8897 5.61887 17.3047 5.61887 18.2142V21.3467H4.49289V18.4596C4.49289 17.9507 4.46763 17.561 3.96599 17.561C3.46435 17.561 3.3236 18.0446 3.3236 18.539V21.3359H2.19763V17.7486Z" fill="#080501"/>
<path d="M6.85704 20.2387V17.6692H6.30127V16.9763H6.85704V16.2148L7.98302 15.7817V16.9763H8.67593V17.6692H7.99746V20.1269C7.99746 20.5094 8.04076 20.6826 8.43774 20.6826C8.53077 20.6795 8.62355 20.6711 8.71563 20.6574V21.3431C8.49939 21.3853 8.27897 21.4023 8.05881 21.3936C7.16741 21.3936 6.85704 21.1229 6.85704 20.2387Z" fill="#080501"/>
<path d="M9.2959 19.2281C9.2959 17.8351 9.60626 16.8823 11.0787 16.8823C12.5511 16.8823 12.7496 17.8784 12.7316 19.2967H10.4111C10.4111 20.3794 10.4904 20.7763 11.0246 20.7763C11.4576 20.7763 11.6128 20.4154 11.62 19.9102L12.7027 20.004C12.6414 20.9893 12.1217 21.4476 11.039 21.4476C9.56296 21.4368 9.2959 20.6031 9.2959 19.2281ZM10.4111 18.6723H11.6056C11.6056 18.1707 11.6056 17.5464 11.0426 17.5464C10.4796 17.5464 10.4183 18.0083 10.4111 18.6723Z" fill="#080501"/>
<path d="M13.5444 15.0815H14.6704V21.3394H13.5444V15.0815Z" fill="#080501"/>
<path d="M15.5684 15.0815H16.6943V21.3394H15.5684V15.0815Z" fill="#080501"/>
<path d="M17.6445 15.1431H18.7886V16.0706H17.6445V15.1431ZM17.6445 16.98H18.7669V21.3396H17.6554L17.6445 16.98Z" fill="#080501"/>
<path d="M19.7123 21.8588L20.8708 21.7361C20.8708 22.1872 21.0512 22.429 21.3977 22.429C21.9534 22.429 22.022 21.996 22.022 21.4005V20.7689C21.903 20.9434 21.7406 21.0839 21.5507 21.1763C21.3608 21.2687 21.15 21.3099 20.9393 21.2958C19.7628 21.2958 19.6221 20.3106 19.6221 19.2604C19.6221 18.0153 19.7087 16.8785 20.9465 16.8785C21.1672 16.8614 21.3882 16.9068 21.5841 17.0096C21.7801 17.1124 21.9431 17.2683 22.0545 17.4596V16.976H23.1371C23.1371 17.1059 23.1119 17.6184 23.1119 17.6978V21.5052C23.1119 22.6744 22.3901 23.0389 21.3074 23.0389C20.4413 23.0353 19.7556 22.8116 19.7123 21.8588ZM22.0148 19.1485C22.0148 18.2932 21.9354 17.557 21.3904 17.557C20.7841 17.557 20.7589 18.3798 20.7589 19.2207C20.7589 19.8884 20.795 20.639 21.3832 20.639C21.9715 20.639 22.0148 19.9461 22.0148 19.1485Z" fill="#080501"/>
<path d="M23.9199 19.2281C23.9199 17.8351 24.2303 16.8823 25.7027 16.8823C27.1752 16.8823 27.3737 17.8784 27.3556 19.2931H25.0351C25.0351 20.3757 25.1145 20.7727 25.6486 20.7727C26.0817 20.7727 26.2368 20.4118 26.2441 19.9066L27.3267 20.0004C27.2654 20.9857 26.7457 21.444 25.663 21.444C24.1798 21.4368 23.9199 20.6031 23.9199 19.2281ZM25.0351 18.6723H26.2296C26.2296 18.1707 26.2296 17.5464 25.6666 17.5464C25.1036 17.5464 25.0459 18.0083 25.0351 18.6723Z" fill="#080501"/>
<path d="M28.1493 17.7486C28.1493 17.5068 28.1493 17.1351 28.124 16.9799H29.232V17.4888C29.3511 17.2936 29.5213 17.1346 29.7242 17.029C29.9271 16.9234 30.1549 16.8753 30.3832 16.8897C31.1699 16.8897 31.5525 17.3047 31.5525 18.2142V21.3467H30.4337V18.4596C30.4337 17.9507 30.4085 17.561 29.9068 17.561C29.4052 17.561 29.2644 18.0446 29.2644 18.539V21.3359H28.1493V17.7486Z" fill="#080501"/>
<path d="M32.8165 20.2387V17.6692H32.2427V16.9763H32.8129V16.2148L33.9244 15.7817V16.9763H34.6462V17.6692H33.9244V20.1269C33.9244 20.5094 33.9677 20.6826 34.3647 20.6826C34.4577 20.6795 34.5505 20.6711 34.6426 20.6574V21.3431C34.4264 21.3853 34.2059 21.4023 33.9858 21.3936C33.1088 21.3936 32.8165 21.1229 32.8165 20.2387Z" fill="#080501"/>
<path d="M38.4665 20.863V21.3394H37.3838C37.3838 21.0976 37.4091 20.6393 37.4091 20.5346V15.0815H38.5278V17.4165C38.6473 17.2418 38.8095 17.1006 38.999 17.0065C39.1886 16.9124 39.3991 16.8684 39.6105 16.8788C40.8736 16.8788 40.8989 17.9614 40.8989 19.1019C40.8989 20.2423 40.805 21.4296 39.513 21.4296C39.303 21.4428 39.0935 21.3966 38.9085 21.2964C38.7234 21.1963 38.5703 21.0461 38.4665 20.863ZM39.7729 19.0586C39.7729 18.3151 39.7729 17.5428 39.1774 17.5428C38.5819 17.5428 38.5098 18.3656 38.5098 19.1271C38.5098 19.8886 38.5098 20.7547 39.1594 20.7547C39.7224 20.7692 39.7729 19.9644 39.7729 19.073V19.0586Z" fill="#080501"/>
<path d="M41.79 20.1524V16.9766H42.9088V19.842C42.9088 20.3365 42.9521 20.7587 43.4465 20.7587C43.8796 20.7587 44.0781 20.3978 44.0781 19.7554V16.9766H45.2041V20.5855C45.2041 20.7659 45.2041 21.1304 45.2293 21.3578H44.0997V20.8634C43.9825 21.0521 43.817 21.2061 43.6203 21.3095C43.4236 21.4129 43.2029 21.462 42.981 21.4516C42.169 21.4372 41.79 21.0185 41.79 20.1524Z" fill="#080501"/>
<path d="M46.2437 15.1431H47.3877V16.0706H46.2437V15.1431ZM46.2437 16.98H47.3696V21.3396H46.2437V16.98Z" fill="#080501"/>
<path d="M48.4287 15.0815H49.5547V21.3394H48.4287V15.0815Z" fill="#080501"/>
<path d="M50.4346 19.1488C50.4346 17.9723 50.5573 16.8788 51.759 16.8788C51.9655 16.8644 52.172 16.9049 52.3577 16.9962C52.5434 17.0875 52.7017 17.2263 52.8164 17.3985V15.0815H53.9424V20.5274C53.9424 20.6212 53.9424 21.0976 53.9677 21.3394H52.885V20.8702C52.7771 21.0493 52.623 21.1961 52.4389 21.2951C52.2547 21.3942 52.0473 21.4419 51.8384 21.4332C50.5248 21.4368 50.4346 20.2928 50.4346 19.1488ZM52.8056 19.1921C52.8056 18.4053 52.8056 17.5573 52.1741 17.5573C51.5425 17.5573 51.5605 18.3801 51.5605 19.1777C51.5605 20.2062 51.7085 20.7692 52.1741 20.7692C52.7731 20.7692 52.8056 19.9716 52.8056 19.1921Z" fill="#080501"/>
<path d="M54.9502 15.1431H56.0942V16.0706H54.9502V15.1431ZM54.9502 16.98H56.0762V21.3396H54.9502V16.98Z" fill="#080501"/>
<path d="M57.1322 17.7486C57.1322 17.5068 57.1322 17.1351 57.1069 16.9799H58.2329V17.4888C58.3521 17.2936 58.5223 17.1346 58.7252 17.029C58.928 16.9234 59.1559 16.8753 59.3842 16.8897C60.1709 16.8897 60.5534 17.3047 60.5534 18.2142V21.3467H59.4275V18.4596C59.4275 17.9507 59.4022 17.561 58.9006 17.561C58.3989 17.561 58.2582 18.0446 58.2582 18.539V21.3359H57.1322V17.7486Z" fill="#080501"/>
<path d="M61.5521 21.8588L62.7106 21.7361C62.7106 22.1872 62.891 22.429 63.2375 22.429C63.7933 22.429 63.8618 21.996 63.8618 21.4005V20.7689C63.7429 20.9434 63.5804 21.0839 63.3905 21.1763C63.2006 21.2687 62.9899 21.3099 62.7792 21.2958C61.6027 21.2958 61.4619 20.3106 61.4619 19.2604C61.4619 18.0153 61.5485 16.8785 62.7864 16.8785C63.007 16.8614 63.228 16.9068 63.424 17.0096C63.62 17.1124 63.783 17.2683 63.8943 17.4596V16.976H64.977C64.977 17.1059 64.9517 17.6184 64.9517 17.6978V21.5052C64.9517 22.6744 64.2299 23.0389 63.1473 23.0389C62.2811 23.0353 61.5954 22.8116 61.5521 21.8588ZM63.8366 19.1485C63.8366 18.2932 63.7572 17.557 63.2122 17.557C62.6059 17.557 62.5807 18.3798 62.5807 19.2207C62.5807 19.8884 62.6168 20.639 63.205 20.639C63.7933 20.639 63.8366 19.9461 63.8366 19.1485Z" fill="#080501"/>
<path d="M0 23.8838H0.952751C1.56266 23.8838 1.8622 24.0931 1.86941 24.6056C1.88259 24.7655 1.83545 24.9245 1.73727 25.0514C1.63909 25.1783 1.49699 25.2639 1.3389 25.2913C1.4074 25.2943 1.47419 25.3135 1.5338 25.3474C1.5934 25.3813 1.64411 25.4288 1.68175 25.4861C1.75506 25.6847 1.79056 25.8952 1.78641 26.1069C1.79819 26.3297 1.83696 26.5502 1.90189 26.7637H1.44356C1.40392 26.5807 1.37858 26.3949 1.36778 26.2079C1.37015 25.9973 1.33344 25.788 1.25951 25.5908C1.20177 25.5042 1.06463 25.4609 0.862529 25.4609H0.422242V26.7637H0V23.8838ZM0.79035 25.1397C1.20177 25.1397 1.42913 25.0567 1.45078 24.6489C1.45078 24.3457 1.26312 24.2086 0.873355 24.2086H0.422242V25.1433L0.79035 25.1397Z" fill="#080501"/>
<path d="M2.44189 25.6809V23.8765H2.88579V25.652C2.88579 26.1609 3.04458 26.4749 3.51374 26.4749C3.9829 26.4749 4.14169 26.1609 4.14169 25.6557V23.8837H4.56754V25.6881C4.56754 26.4099 4.24996 26.7925 3.50652 26.7925C2.76309 26.7925 2.44189 26.4207 2.44189 25.6809Z" fill="#080501"/>
<path d="M5.05273 26.0089L5.48219 25.9475C5.4722 26.0766 5.51363 26.2044 5.59745 26.3031C5.68127 26.4018 5.80069 26.4634 5.9297 26.4744H6.01631C6.30863 26.4744 6.56126 26.3265 6.56126 26.0089C6.56126 25.6913 6.27254 25.6011 5.95135 25.4531C5.47859 25.251 5.10687 25.0922 5.10687 24.605C5.10687 24.1178 5.55076 23.8291 6.06323 23.8291C6.57569 23.8291 6.92937 24.024 6.95102 24.5509L6.52156 24.6122C6.52885 24.5481 6.52132 24.4831 6.49955 24.4223C6.47778 24.3615 6.44235 24.3065 6.39599 24.2615C6.34963 24.2165 6.29357 24.1828 6.23213 24.1629C6.17069 24.143 6.1055 24.1374 6.04157 24.1467C5.98348 24.1391 5.92447 24.1431 5.86793 24.1584C5.81139 24.1738 5.75844 24.2002 5.71215 24.2361C5.66585 24.2719 5.62712 24.3167 5.59818 24.3676C5.56924 24.4185 5.55067 24.4747 5.54355 24.5328C5.54355 24.5328 5.54355 24.5617 5.54355 24.5761C5.54355 24.8973 5.87196 25.0056 6.17871 25.1319C6.64787 25.3304 7.00154 25.4928 7.00154 25.98C7.00154 26.543 6.56487 26.7992 6.0127 26.7992C5.46054 26.7992 5.10326 26.5647 5.05273 26.0089Z" fill="#080501"/>
<path d="M7.44531 26.0089L7.87477 25.9475C7.86478 26.0766 7.90621 26.2044 7.99003 26.3031C8.07384 26.4018 8.19327 26.4634 8.32228 26.4744H8.40889C8.70121 26.4744 8.95384 26.3265 8.95384 26.0089C8.95384 25.6913 8.66512 25.6011 8.34393 25.4531C7.87116 25.251 7.49945 25.0922 7.49945 24.605C7.49945 24.1178 7.94334 23.8291 8.45581 23.8291C8.96827 23.8291 9.32194 24.024 9.3436 24.5509L8.91414 24.6122C8.92143 24.5481 8.9139 24.4831 8.89213 24.4223C8.87036 24.3615 8.83493 24.3065 8.78857 24.2615C8.74221 24.2165 8.68615 24.1828 8.62471 24.1629C8.56326 24.143 8.49807 24.1374 8.43415 24.1467C8.31795 24.1324 8.20079 24.1645 8.10818 24.2362C8.01558 24.3078 7.95504 24.4131 7.93973 24.5292C7.93973 24.5292 7.93973 24.5581 7.93973 24.5725C7.93973 24.8937 8.26814 25.002 8.5749 25.1283C9.04406 25.3268 9.39773 25.4892 9.39773 25.9764C9.39773 26.5394 8.96105 26.7956 8.40889 26.7956C7.85673 26.7956 7.48501 26.5647 7.44531 26.0089Z" fill="#080501"/>
<path d="M9.94971 23.8838H10.3756V26.7709H9.94971V23.8838Z" fill="#080501"/>
<path d="M11.837 23.8838H12.3278L13.3744 26.7709H12.9161L12.6707 26.0491H11.4761L11.2307 26.7709H10.8013L11.837 23.8838ZM12.5588 25.7171L12.068 24.2411C12.068 24.2411 11.6277 25.6197 11.588 25.7171H12.5588Z" fill="#080501"/>
</g>
<defs>
<clipPath id="clip0_412_416">
<rect width="65" height="26.2764" fill="white" transform="translate(0 0.526855)"/>
</clipPath>
</defs>
</svg>
